G75*
%MOIN*%
%OFA0B0*%
%FSLAX25Y25*%
%IPPOS*%
%LPD*%
%AMOC8*
5,1,8,0,0,1.08239X$1,22.5*
%
%ADD10C,0.00000*%
%ADD11C,0.00500*%
D10*
X0024622Y0008874D02*
X0331709Y0008874D01*
X0332090Y0008879D01*
X0332470Y0008892D01*
X0332850Y0008915D01*
X0333229Y0008948D01*
X0333607Y0008989D01*
X0333984Y0009039D01*
X0334360Y0009099D01*
X0334735Y0009167D01*
X0335107Y0009245D01*
X0335478Y0009332D01*
X0335846Y0009427D01*
X0336212Y0009532D01*
X0336575Y0009645D01*
X0336936Y0009767D01*
X0337293Y0009897D01*
X0337647Y0010037D01*
X0337998Y0010184D01*
X0338345Y0010341D01*
X0338688Y0010505D01*
X0339027Y0010678D01*
X0339362Y0010859D01*
X0339693Y0011048D01*
X0340018Y0011245D01*
X0340339Y0011449D01*
X0340655Y0011662D01*
X0340965Y0011882D01*
X0341271Y0012109D01*
X0341570Y0012344D01*
X0341864Y0012586D01*
X0342152Y0012834D01*
X0342434Y0013090D01*
X0342709Y0013353D01*
X0342978Y0013622D01*
X0343241Y0013897D01*
X0343497Y0014179D01*
X0343745Y0014467D01*
X0343987Y0014761D01*
X0344222Y0015060D01*
X0344449Y0015366D01*
X0344669Y0015676D01*
X0344882Y0015992D01*
X0345086Y0016313D01*
X0345283Y0016638D01*
X0345472Y0016969D01*
X0345653Y0017304D01*
X0345826Y0017643D01*
X0345990Y0017986D01*
X0346147Y0018333D01*
X0346294Y0018684D01*
X0346434Y0019038D01*
X0346564Y0019395D01*
X0346686Y0019756D01*
X0346799Y0020119D01*
X0346904Y0020485D01*
X0346999Y0020853D01*
X0347086Y0021224D01*
X0347164Y0021596D01*
X0347232Y0021971D01*
X0347292Y0022347D01*
X0347342Y0022724D01*
X0347383Y0023102D01*
X0347416Y0023481D01*
X0347439Y0023861D01*
X0347452Y0024241D01*
X0347457Y0024622D01*
X0347457Y0115173D01*
X0347452Y0115554D01*
X0347439Y0115934D01*
X0347416Y0116314D01*
X0347383Y0116693D01*
X0347342Y0117071D01*
X0347292Y0117448D01*
X0347232Y0117824D01*
X0347164Y0118199D01*
X0347086Y0118571D01*
X0346999Y0118942D01*
X0346904Y0119310D01*
X0346799Y0119676D01*
X0346686Y0120039D01*
X0346564Y0120400D01*
X0346434Y0120757D01*
X0346294Y0121111D01*
X0346147Y0121462D01*
X0345990Y0121809D01*
X0345826Y0122152D01*
X0345653Y0122491D01*
X0345472Y0122826D01*
X0345283Y0123157D01*
X0345086Y0123482D01*
X0344882Y0123803D01*
X0344669Y0124119D01*
X0344449Y0124429D01*
X0344222Y0124735D01*
X0343987Y0125034D01*
X0343745Y0125328D01*
X0343497Y0125616D01*
X0343241Y0125898D01*
X0342978Y0126173D01*
X0342709Y0126442D01*
X0342434Y0126705D01*
X0342152Y0126961D01*
X0341864Y0127209D01*
X0341570Y0127451D01*
X0341271Y0127686D01*
X0340965Y0127913D01*
X0340655Y0128133D01*
X0340339Y0128346D01*
X0340018Y0128550D01*
X0339693Y0128747D01*
X0339362Y0128936D01*
X0339027Y0129117D01*
X0338688Y0129290D01*
X0338345Y0129454D01*
X0337998Y0129611D01*
X0337647Y0129758D01*
X0337293Y0129898D01*
X0336936Y0130028D01*
X0336575Y0130150D01*
X0336212Y0130263D01*
X0335846Y0130368D01*
X0335478Y0130463D01*
X0335107Y0130550D01*
X0334735Y0130628D01*
X0334360Y0130696D01*
X0333984Y0130756D01*
X0333607Y0130806D01*
X0333229Y0130847D01*
X0332850Y0130880D01*
X0332470Y0130903D01*
X0332090Y0130916D01*
X0331709Y0130921D01*
X0024622Y0130921D01*
X0024241Y0130916D01*
X0023861Y0130903D01*
X0023481Y0130880D01*
X0023102Y0130847D01*
X0022724Y0130806D01*
X0022347Y0130756D01*
X0021971Y0130696D01*
X0021596Y0130628D01*
X0021224Y0130550D01*
X0020853Y0130463D01*
X0020485Y0130368D01*
X0020119Y0130263D01*
X0019756Y0130150D01*
X0019395Y0130028D01*
X0019038Y0129898D01*
X0018684Y0129758D01*
X0018333Y0129611D01*
X0017986Y0129454D01*
X0017643Y0129290D01*
X0017304Y0129117D01*
X0016969Y0128936D01*
X0016638Y0128747D01*
X0016313Y0128550D01*
X0015992Y0128346D01*
X0015676Y0128133D01*
X0015366Y0127913D01*
X0015060Y0127686D01*
X0014761Y0127451D01*
X0014467Y0127209D01*
X0014179Y0126961D01*
X0013897Y0126705D01*
X0013622Y0126442D01*
X0013353Y0126173D01*
X0013090Y0125898D01*
X0012834Y0125616D01*
X0012586Y0125328D01*
X0012344Y0125034D01*
X0012109Y0124735D01*
X0011882Y0124429D01*
X0011662Y0124119D01*
X0011449Y0123803D01*
X0011245Y0123482D01*
X0011048Y0123157D01*
X0010859Y0122826D01*
X0010678Y0122491D01*
X0010505Y0122152D01*
X0010341Y0121809D01*
X0010184Y0121462D01*
X0010037Y0121111D01*
X0009897Y0120757D01*
X0009767Y0120400D01*
X0009645Y0120039D01*
X0009532Y0119676D01*
X0009427Y0119310D01*
X0009332Y0118942D01*
X0009245Y0118571D01*
X0009167Y0118199D01*
X0009099Y0117824D01*
X0009039Y0117448D01*
X0008989Y0117071D01*
X0008948Y0116693D01*
X0008915Y0116314D01*
X0008892Y0115934D01*
X0008879Y0115554D01*
X0008874Y0115173D01*
X0008874Y0024622D01*
X0008879Y0024241D01*
X0008892Y0023861D01*
X0008915Y0023481D01*
X0008948Y0023102D01*
X0008989Y0022724D01*
X0009039Y0022347D01*
X0009099Y0021971D01*
X0009167Y0021596D01*
X0009245Y0021224D01*
X0009332Y0020853D01*
X0009427Y0020485D01*
X0009532Y0020119D01*
X0009645Y0019756D01*
X0009767Y0019395D01*
X0009897Y0019038D01*
X0010037Y0018684D01*
X0010184Y0018333D01*
X0010341Y0017986D01*
X0010505Y0017643D01*
X0010678Y0017304D01*
X0010859Y0016969D01*
X0011048Y0016638D01*
X0011245Y0016313D01*
X0011449Y0015992D01*
X0011662Y0015676D01*
X0011882Y0015366D01*
X0012109Y0015060D01*
X0012344Y0014761D01*
X0012586Y0014467D01*
X0012834Y0014179D01*
X0013090Y0013897D01*
X0013353Y0013622D01*
X0013622Y0013353D01*
X0013897Y0013090D01*
X0014179Y0012834D01*
X0014467Y0012586D01*
X0014761Y0012344D01*
X0015060Y0012109D01*
X0015366Y0011882D01*
X0015676Y0011662D01*
X0015992Y0011449D01*
X0016313Y0011245D01*
X0016638Y0011048D01*
X0016969Y0010859D01*
X0017304Y0010678D01*
X0017643Y0010505D01*
X0017986Y0010341D01*
X0018333Y0010184D01*
X0018684Y0010037D01*
X0019038Y0009897D01*
X0019395Y0009767D01*
X0019756Y0009645D01*
X0020119Y0009532D01*
X0020485Y0009427D01*
X0020853Y0009332D01*
X0021224Y0009245D01*
X0021596Y0009167D01*
X0021971Y0009099D01*
X0022347Y0009039D01*
X0022724Y0008989D01*
X0023102Y0008948D01*
X0023481Y0008915D01*
X0023861Y0008892D01*
X0024241Y0008879D01*
X0024622Y0008874D01*
D11*
X0051394Y0038795D02*
X0051394Y0084465D01*
X0067929Y0101000D02*
X0068329Y0100995D01*
X0068728Y0100981D01*
X0069127Y0100957D01*
X0069525Y0100923D01*
X0069922Y0100879D01*
X0070318Y0100826D01*
X0070713Y0100764D01*
X0071106Y0100692D01*
X0071497Y0100610D01*
X0071886Y0100520D01*
X0072273Y0100419D01*
X0072657Y0100310D01*
X0073039Y0100191D01*
X0073417Y0100063D01*
X0073792Y0099925D01*
X0074164Y0099779D01*
X0074532Y0099624D01*
X0074897Y0099460D01*
X0075257Y0099287D01*
X0075613Y0099106D01*
X0075965Y0098916D01*
X0076312Y0098718D01*
X0076654Y0098511D01*
X0076990Y0098296D01*
X0077322Y0098073D01*
X0077648Y0097842D01*
X0077968Y0097603D01*
X0078283Y0097357D01*
X0078591Y0097103D01*
X0078894Y0096842D01*
X0079190Y0096573D01*
X0079479Y0096297D01*
X0079761Y0096015D01*
X0080037Y0095726D01*
X0080306Y0095430D01*
X0080567Y0095127D01*
X0080821Y0094819D01*
X0081067Y0094504D01*
X0081306Y0094184D01*
X0081537Y0093858D01*
X0081760Y0093526D01*
X0081975Y0093190D01*
X0082182Y0092848D01*
X0082380Y0092501D01*
X0082570Y0092149D01*
X0082751Y0091793D01*
X0082924Y0091433D01*
X0083088Y0091068D01*
X0083243Y0090700D01*
X0083389Y0090328D01*
X0083527Y0089953D01*
X0083655Y0089575D01*
X0083774Y0089193D01*
X0083883Y0088809D01*
X0083984Y0088422D01*
X0084074Y0088033D01*
X0084156Y0087642D01*
X0084228Y0087249D01*
X0084290Y0086854D01*
X0084343Y0086458D01*
X0084387Y0086061D01*
X0084421Y0085663D01*
X0084445Y0085264D01*
X0084459Y0084865D01*
X0084464Y0084465D01*
X0084465Y0084465D02*
X0084465Y0038795D01*
X0051394Y0038795D01*
X0106512Y0038795D02*
X0106512Y0084465D01*
X0123047Y0101000D02*
X0123447Y0100995D01*
X0123846Y0100981D01*
X0124245Y0100957D01*
X0124643Y0100923D01*
X0125040Y0100879D01*
X0125436Y0100826D01*
X0125831Y0100764D01*
X0126224Y0100692D01*
X0126615Y0100610D01*
X0127004Y0100520D01*
X0127391Y0100419D01*
X0127775Y0100310D01*
X0128157Y0100191D01*
X0128535Y0100063D01*
X0128910Y0099925D01*
X0129282Y0099779D01*
X0129650Y0099624D01*
X0130015Y0099460D01*
X0130375Y0099287D01*
X0130731Y0099106D01*
X0131083Y0098916D01*
X0131430Y0098718D01*
X0131772Y0098511D01*
X0132108Y0098296D01*
X0132440Y0098073D01*
X0132766Y0097842D01*
X0133086Y0097603D01*
X0133401Y0097357D01*
X0133709Y0097103D01*
X0134012Y0096842D01*
X0134308Y0096573D01*
X0134597Y0096297D01*
X0134879Y0096015D01*
X0135155Y0095726D01*
X0135424Y0095430D01*
X0135685Y0095127D01*
X0135939Y0094819D01*
X0136185Y0094504D01*
X0136424Y0094184D01*
X0136655Y0093858D01*
X0136878Y0093526D01*
X0137093Y0093190D01*
X0137300Y0092848D01*
X0137498Y0092501D01*
X0137688Y0092149D01*
X0137869Y0091793D01*
X0138042Y0091433D01*
X0138206Y0091068D01*
X0138361Y0090700D01*
X0138507Y0090328D01*
X0138645Y0089953D01*
X0138773Y0089575D01*
X0138892Y0089193D01*
X0139001Y0088809D01*
X0139102Y0088422D01*
X0139192Y0088033D01*
X0139274Y0087642D01*
X0139346Y0087249D01*
X0139408Y0086854D01*
X0139461Y0086458D01*
X0139505Y0086061D01*
X0139539Y0085663D01*
X0139563Y0085264D01*
X0139577Y0084865D01*
X0139582Y0084465D01*
X0139583Y0084465D02*
X0139583Y0038795D01*
X0106512Y0038795D01*
X0162220Y0038913D02*
X0162220Y0084583D01*
X0178756Y0101118D02*
X0179156Y0101113D01*
X0179555Y0101099D01*
X0179954Y0101075D01*
X0180352Y0101041D01*
X0180749Y0100997D01*
X0181145Y0100944D01*
X0181540Y0100882D01*
X0181933Y0100810D01*
X0182324Y0100728D01*
X0182713Y0100638D01*
X0183100Y0100537D01*
X0183484Y0100428D01*
X0183866Y0100309D01*
X0184244Y0100181D01*
X0184619Y0100043D01*
X0184991Y0099897D01*
X0185359Y0099742D01*
X0185724Y0099578D01*
X0186084Y0099405D01*
X0186440Y0099224D01*
X0186792Y0099034D01*
X0187139Y0098836D01*
X0187481Y0098629D01*
X0187817Y0098414D01*
X0188149Y0098191D01*
X0188475Y0097960D01*
X0188795Y0097721D01*
X0189110Y0097475D01*
X0189418Y0097221D01*
X0189721Y0096960D01*
X0190017Y0096691D01*
X0190306Y0096415D01*
X0190588Y0096133D01*
X0190864Y0095844D01*
X0191133Y0095548D01*
X0191394Y0095245D01*
X0191648Y0094937D01*
X0191894Y0094622D01*
X0192133Y0094302D01*
X0192364Y0093976D01*
X0192587Y0093644D01*
X0192802Y0093308D01*
X0193009Y0092966D01*
X0193207Y0092619D01*
X0193397Y0092267D01*
X0193578Y0091911D01*
X0193751Y0091551D01*
X0193915Y0091186D01*
X0194070Y0090818D01*
X0194216Y0090446D01*
X0194354Y0090071D01*
X0194482Y0089693D01*
X0194601Y0089311D01*
X0194710Y0088927D01*
X0194811Y0088540D01*
X0194901Y0088151D01*
X0194983Y0087760D01*
X0195055Y0087367D01*
X0195117Y0086972D01*
X0195170Y0086576D01*
X0195214Y0086179D01*
X0195248Y0085781D01*
X0195272Y0085382D01*
X0195286Y0084983D01*
X0195291Y0084583D01*
X0195291Y0038913D01*
X0162220Y0038913D01*
X0216748Y0038795D02*
X0216748Y0084465D01*
X0233283Y0101000D02*
X0233683Y0100995D01*
X0234082Y0100981D01*
X0234481Y0100957D01*
X0234879Y0100923D01*
X0235276Y0100879D01*
X0235672Y0100826D01*
X0236067Y0100764D01*
X0236460Y0100692D01*
X0236851Y0100610D01*
X0237240Y0100520D01*
X0237627Y0100419D01*
X0238011Y0100310D01*
X0238393Y0100191D01*
X0238771Y0100063D01*
X0239146Y0099925D01*
X0239518Y0099779D01*
X0239886Y0099624D01*
X0240251Y0099460D01*
X0240611Y0099287D01*
X0240967Y0099106D01*
X0241319Y0098916D01*
X0241666Y0098718D01*
X0242008Y0098511D01*
X0242344Y0098296D01*
X0242676Y0098073D01*
X0243002Y0097842D01*
X0243322Y0097603D01*
X0243637Y0097357D01*
X0243945Y0097103D01*
X0244248Y0096842D01*
X0244544Y0096573D01*
X0244833Y0096297D01*
X0245115Y0096015D01*
X0245391Y0095726D01*
X0245660Y0095430D01*
X0245921Y0095127D01*
X0246175Y0094819D01*
X0246421Y0094504D01*
X0246660Y0094184D01*
X0246891Y0093858D01*
X0247114Y0093526D01*
X0247329Y0093190D01*
X0247536Y0092848D01*
X0247734Y0092501D01*
X0247924Y0092149D01*
X0248105Y0091793D01*
X0248278Y0091433D01*
X0248442Y0091068D01*
X0248597Y0090700D01*
X0248743Y0090328D01*
X0248881Y0089953D01*
X0249009Y0089575D01*
X0249128Y0089193D01*
X0249237Y0088809D01*
X0249338Y0088422D01*
X0249428Y0088033D01*
X0249510Y0087642D01*
X0249582Y0087249D01*
X0249644Y0086854D01*
X0249697Y0086458D01*
X0249741Y0086061D01*
X0249775Y0085663D01*
X0249799Y0085264D01*
X0249813Y0084865D01*
X0249818Y0084465D01*
X0249819Y0084465D02*
X0249819Y0038795D01*
X0216748Y0038795D01*
X0271866Y0038795D02*
X0271866Y0084465D01*
X0288402Y0101000D02*
X0288802Y0100995D01*
X0289201Y0100981D01*
X0289600Y0100957D01*
X0289998Y0100923D01*
X0290395Y0100879D01*
X0290791Y0100826D01*
X0291186Y0100764D01*
X0291579Y0100692D01*
X0291970Y0100610D01*
X0292359Y0100520D01*
X0292746Y0100419D01*
X0293130Y0100310D01*
X0293512Y0100191D01*
X0293890Y0100063D01*
X0294265Y0099925D01*
X0294637Y0099779D01*
X0295005Y0099624D01*
X0295370Y0099460D01*
X0295730Y0099287D01*
X0296086Y0099106D01*
X0296438Y0098916D01*
X0296785Y0098718D01*
X0297127Y0098511D01*
X0297463Y0098296D01*
X0297795Y0098073D01*
X0298121Y0097842D01*
X0298441Y0097603D01*
X0298756Y0097357D01*
X0299064Y0097103D01*
X0299367Y0096842D01*
X0299663Y0096573D01*
X0299952Y0096297D01*
X0300234Y0096015D01*
X0300510Y0095726D01*
X0300779Y0095430D01*
X0301040Y0095127D01*
X0301294Y0094819D01*
X0301540Y0094504D01*
X0301779Y0094184D01*
X0302010Y0093858D01*
X0302233Y0093526D01*
X0302448Y0093190D01*
X0302655Y0092848D01*
X0302853Y0092501D01*
X0303043Y0092149D01*
X0303224Y0091793D01*
X0303397Y0091433D01*
X0303561Y0091068D01*
X0303716Y0090700D01*
X0303862Y0090328D01*
X0304000Y0089953D01*
X0304128Y0089575D01*
X0304247Y0089193D01*
X0304356Y0088809D01*
X0304457Y0088422D01*
X0304547Y0088033D01*
X0304629Y0087642D01*
X0304701Y0087249D01*
X0304763Y0086854D01*
X0304816Y0086458D01*
X0304860Y0086061D01*
X0304894Y0085663D01*
X0304918Y0085264D01*
X0304932Y0084865D01*
X0304937Y0084465D01*
X0304937Y0038795D01*
X0271866Y0038795D01*
X0271867Y0084465D02*
X0271872Y0084865D01*
X0271886Y0085264D01*
X0271910Y0085663D01*
X0271944Y0086061D01*
X0271988Y0086458D01*
X0272041Y0086854D01*
X0272103Y0087249D01*
X0272175Y0087642D01*
X0272257Y0088033D01*
X0272347Y0088422D01*
X0272448Y0088809D01*
X0272557Y0089193D01*
X0272676Y0089575D01*
X0272804Y0089953D01*
X0272942Y0090328D01*
X0273088Y0090700D01*
X0273243Y0091068D01*
X0273407Y0091433D01*
X0273580Y0091793D01*
X0273761Y0092149D01*
X0273951Y0092501D01*
X0274149Y0092848D01*
X0274356Y0093190D01*
X0274571Y0093526D01*
X0274794Y0093858D01*
X0275025Y0094184D01*
X0275264Y0094504D01*
X0275510Y0094819D01*
X0275764Y0095127D01*
X0276025Y0095430D01*
X0276294Y0095726D01*
X0276570Y0096015D01*
X0276852Y0096297D01*
X0277141Y0096573D01*
X0277437Y0096842D01*
X0277740Y0097103D01*
X0278048Y0097357D01*
X0278363Y0097603D01*
X0278683Y0097842D01*
X0279009Y0098073D01*
X0279341Y0098296D01*
X0279677Y0098511D01*
X0280019Y0098718D01*
X0280366Y0098916D01*
X0280718Y0099106D01*
X0281074Y0099287D01*
X0281434Y0099460D01*
X0281799Y0099624D01*
X0282167Y0099779D01*
X0282539Y0099925D01*
X0282914Y0100063D01*
X0283292Y0100191D01*
X0283674Y0100310D01*
X0284058Y0100419D01*
X0284445Y0100520D01*
X0284834Y0100610D01*
X0285225Y0100692D01*
X0285618Y0100764D01*
X0286013Y0100826D01*
X0286409Y0100879D01*
X0286806Y0100923D01*
X0287204Y0100957D01*
X0287603Y0100981D01*
X0288002Y0100995D01*
X0288402Y0101000D01*
X0233283Y0101000D02*
X0232883Y0100995D01*
X0232484Y0100981D01*
X0232085Y0100957D01*
X0231687Y0100923D01*
X0231290Y0100879D01*
X0230894Y0100826D01*
X0230499Y0100764D01*
X0230106Y0100692D01*
X0229715Y0100610D01*
X0229326Y0100520D01*
X0228939Y0100419D01*
X0228555Y0100310D01*
X0228173Y0100191D01*
X0227795Y0100063D01*
X0227420Y0099925D01*
X0227048Y0099779D01*
X0226680Y0099624D01*
X0226315Y0099460D01*
X0225955Y0099287D01*
X0225599Y0099106D01*
X0225247Y0098916D01*
X0224900Y0098718D01*
X0224558Y0098511D01*
X0224222Y0098296D01*
X0223890Y0098073D01*
X0223564Y0097842D01*
X0223244Y0097603D01*
X0222929Y0097357D01*
X0222621Y0097103D01*
X0222318Y0096842D01*
X0222022Y0096573D01*
X0221733Y0096297D01*
X0221451Y0096015D01*
X0221175Y0095726D01*
X0220906Y0095430D01*
X0220645Y0095127D01*
X0220391Y0094819D01*
X0220145Y0094504D01*
X0219906Y0094184D01*
X0219675Y0093858D01*
X0219452Y0093526D01*
X0219237Y0093190D01*
X0219030Y0092848D01*
X0218832Y0092501D01*
X0218642Y0092149D01*
X0218461Y0091793D01*
X0218288Y0091433D01*
X0218124Y0091068D01*
X0217969Y0090700D01*
X0217823Y0090328D01*
X0217685Y0089953D01*
X0217557Y0089575D01*
X0217438Y0089193D01*
X0217329Y0088809D01*
X0217228Y0088422D01*
X0217138Y0088033D01*
X0217056Y0087642D01*
X0216984Y0087249D01*
X0216922Y0086854D01*
X0216869Y0086458D01*
X0216825Y0086061D01*
X0216791Y0085663D01*
X0216767Y0085264D01*
X0216753Y0084865D01*
X0216748Y0084465D01*
X0178756Y0101118D02*
X0178356Y0101113D01*
X0177957Y0101099D01*
X0177558Y0101075D01*
X0177160Y0101041D01*
X0176763Y0100997D01*
X0176367Y0100944D01*
X0175972Y0100882D01*
X0175579Y0100810D01*
X0175188Y0100728D01*
X0174799Y0100638D01*
X0174412Y0100537D01*
X0174028Y0100428D01*
X0173646Y0100309D01*
X0173268Y0100181D01*
X0172893Y0100043D01*
X0172521Y0099897D01*
X0172153Y0099742D01*
X0171788Y0099578D01*
X0171428Y0099405D01*
X0171072Y0099224D01*
X0170720Y0099034D01*
X0170373Y0098836D01*
X0170031Y0098629D01*
X0169695Y0098414D01*
X0169363Y0098191D01*
X0169037Y0097960D01*
X0168717Y0097721D01*
X0168402Y0097475D01*
X0168094Y0097221D01*
X0167791Y0096960D01*
X0167495Y0096691D01*
X0167206Y0096415D01*
X0166924Y0096133D01*
X0166648Y0095844D01*
X0166379Y0095548D01*
X0166118Y0095245D01*
X0165864Y0094937D01*
X0165618Y0094622D01*
X0165379Y0094302D01*
X0165148Y0093976D01*
X0164925Y0093644D01*
X0164710Y0093308D01*
X0164503Y0092966D01*
X0164305Y0092619D01*
X0164115Y0092267D01*
X0163934Y0091911D01*
X0163761Y0091551D01*
X0163597Y0091186D01*
X0163442Y0090818D01*
X0163296Y0090446D01*
X0163158Y0090071D01*
X0163030Y0089693D01*
X0162911Y0089311D01*
X0162802Y0088927D01*
X0162701Y0088540D01*
X0162611Y0088151D01*
X0162529Y0087760D01*
X0162457Y0087367D01*
X0162395Y0086972D01*
X0162342Y0086576D01*
X0162298Y0086179D01*
X0162264Y0085781D01*
X0162240Y0085382D01*
X0162226Y0084983D01*
X0162221Y0084583D01*
X0123047Y0101000D02*
X0122647Y0100995D01*
X0122248Y0100981D01*
X0121849Y0100957D01*
X0121451Y0100923D01*
X0121054Y0100879D01*
X0120658Y0100826D01*
X0120263Y0100764D01*
X0119870Y0100692D01*
X0119479Y0100610D01*
X0119090Y0100520D01*
X0118703Y0100419D01*
X0118319Y0100310D01*
X0117937Y0100191D01*
X0117559Y0100063D01*
X0117184Y0099925D01*
X0116812Y0099779D01*
X0116444Y0099624D01*
X0116079Y0099460D01*
X0115719Y0099287D01*
X0115363Y0099106D01*
X0115011Y0098916D01*
X0114664Y0098718D01*
X0114322Y0098511D01*
X0113986Y0098296D01*
X0113654Y0098073D01*
X0113328Y0097842D01*
X0113008Y0097603D01*
X0112693Y0097357D01*
X0112385Y0097103D01*
X0112082Y0096842D01*
X0111786Y0096573D01*
X0111497Y0096297D01*
X0111215Y0096015D01*
X0110939Y0095726D01*
X0110670Y0095430D01*
X0110409Y0095127D01*
X0110155Y0094819D01*
X0109909Y0094504D01*
X0109670Y0094184D01*
X0109439Y0093858D01*
X0109216Y0093526D01*
X0109001Y0093190D01*
X0108794Y0092848D01*
X0108596Y0092501D01*
X0108406Y0092149D01*
X0108225Y0091793D01*
X0108052Y0091433D01*
X0107888Y0091068D01*
X0107733Y0090700D01*
X0107587Y0090328D01*
X0107449Y0089953D01*
X0107321Y0089575D01*
X0107202Y0089193D01*
X0107093Y0088809D01*
X0106992Y0088422D01*
X0106902Y0088033D01*
X0106820Y0087642D01*
X0106748Y0087249D01*
X0106686Y0086854D01*
X0106633Y0086458D01*
X0106589Y0086061D01*
X0106555Y0085663D01*
X0106531Y0085264D01*
X0106517Y0084865D01*
X0106512Y0084465D01*
X0067929Y0101000D02*
X0067529Y0100995D01*
X0067130Y0100981D01*
X0066731Y0100957D01*
X0066333Y0100923D01*
X0065936Y0100879D01*
X0065540Y0100826D01*
X0065145Y0100764D01*
X0064752Y0100692D01*
X0064361Y0100610D01*
X0063972Y0100520D01*
X0063585Y0100419D01*
X0063201Y0100310D01*
X0062819Y0100191D01*
X0062441Y0100063D01*
X0062066Y0099925D01*
X0061694Y0099779D01*
X0061326Y0099624D01*
X0060961Y0099460D01*
X0060601Y0099287D01*
X0060245Y0099106D01*
X0059893Y0098916D01*
X0059546Y0098718D01*
X0059204Y0098511D01*
X0058868Y0098296D01*
X0058536Y0098073D01*
X0058210Y0097842D01*
X0057890Y0097603D01*
X0057575Y0097357D01*
X0057267Y0097103D01*
X0056964Y0096842D01*
X0056668Y0096573D01*
X0056379Y0096297D01*
X0056097Y0096015D01*
X0055821Y0095726D01*
X0055552Y0095430D01*
X0055291Y0095127D01*
X0055037Y0094819D01*
X0054791Y0094504D01*
X0054552Y0094184D01*
X0054321Y0093858D01*
X0054098Y0093526D01*
X0053883Y0093190D01*
X0053676Y0092848D01*
X0053478Y0092501D01*
X0053288Y0092149D01*
X0053107Y0091793D01*
X0052934Y0091433D01*
X0052770Y0091068D01*
X0052615Y0090700D01*
X0052469Y0090328D01*
X0052331Y0089953D01*
X0052203Y0089575D01*
X0052084Y0089193D01*
X0051975Y0088809D01*
X0051874Y0088422D01*
X0051784Y0088033D01*
X0051702Y0087642D01*
X0051630Y0087249D01*
X0051568Y0086854D01*
X0051515Y0086458D01*
X0051471Y0086061D01*
X0051437Y0085663D01*
X0051413Y0085264D01*
X0051399Y0084865D01*
X0051394Y0084465D01*
M02*
