G75*
%MOIN*%
%OFA0B0*%
%FSLAX25Y25*%
%IPPOS*%
%LPD*%
%AMOC8*
5,1,8,0,0,1.08239X$1,22.5*
%
%ADD10C,0.00000*%
%ADD11R,0.15748X0.19685*%
%ADD12R,0.19685X0.15748*%
D10*
X0024622Y0008874D02*
X0331709Y0008874D01*
X0332090Y0008879D01*
X0332470Y0008892D01*
X0332850Y0008915D01*
X0333229Y0008948D01*
X0333607Y0008989D01*
X0333984Y0009039D01*
X0334360Y0009099D01*
X0334735Y0009167D01*
X0335107Y0009245D01*
X0335478Y0009332D01*
X0335846Y0009427D01*
X0336212Y0009532D01*
X0336575Y0009645D01*
X0336936Y0009767D01*
X0337293Y0009897D01*
X0337647Y0010037D01*
X0337998Y0010184D01*
X0338345Y0010341D01*
X0338688Y0010505D01*
X0339027Y0010678D01*
X0339362Y0010859D01*
X0339693Y0011048D01*
X0340018Y0011245D01*
X0340339Y0011449D01*
X0340655Y0011662D01*
X0340965Y0011882D01*
X0341271Y0012109D01*
X0341570Y0012344D01*
X0341864Y0012586D01*
X0342152Y0012834D01*
X0342434Y0013090D01*
X0342709Y0013353D01*
X0342978Y0013622D01*
X0343241Y0013897D01*
X0343497Y0014179D01*
X0343745Y0014467D01*
X0343987Y0014761D01*
X0344222Y0015060D01*
X0344449Y0015366D01*
X0344669Y0015676D01*
X0344882Y0015992D01*
X0345086Y0016313D01*
X0345283Y0016638D01*
X0345472Y0016969D01*
X0345653Y0017304D01*
X0345826Y0017643D01*
X0345990Y0017986D01*
X0346147Y0018333D01*
X0346294Y0018684D01*
X0346434Y0019038D01*
X0346564Y0019395D01*
X0346686Y0019756D01*
X0346799Y0020119D01*
X0346904Y0020485D01*
X0346999Y0020853D01*
X0347086Y0021224D01*
X0347164Y0021596D01*
X0347232Y0021971D01*
X0347292Y0022347D01*
X0347342Y0022724D01*
X0347383Y0023102D01*
X0347416Y0023481D01*
X0347439Y0023861D01*
X0347452Y0024241D01*
X0347457Y0024622D01*
X0347457Y0115173D01*
X0347452Y0115554D01*
X0347439Y0115934D01*
X0347416Y0116314D01*
X0347383Y0116693D01*
X0347342Y0117071D01*
X0347292Y0117448D01*
X0347232Y0117824D01*
X0347164Y0118199D01*
X0347086Y0118571D01*
X0346999Y0118942D01*
X0346904Y0119310D01*
X0346799Y0119676D01*
X0346686Y0120039D01*
X0346564Y0120400D01*
X0346434Y0120757D01*
X0346294Y0121111D01*
X0346147Y0121462D01*
X0345990Y0121809D01*
X0345826Y0122152D01*
X0345653Y0122491D01*
X0345472Y0122826D01*
X0345283Y0123157D01*
X0345086Y0123482D01*
X0344882Y0123803D01*
X0344669Y0124119D01*
X0344449Y0124429D01*
X0344222Y0124735D01*
X0343987Y0125034D01*
X0343745Y0125328D01*
X0343497Y0125616D01*
X0343241Y0125898D01*
X0342978Y0126173D01*
X0342709Y0126442D01*
X0342434Y0126705D01*
X0342152Y0126961D01*
X0341864Y0127209D01*
X0341570Y0127451D01*
X0341271Y0127686D01*
X0340965Y0127913D01*
X0340655Y0128133D01*
X0340339Y0128346D01*
X0340018Y0128550D01*
X0339693Y0128747D01*
X0339362Y0128936D01*
X0339027Y0129117D01*
X0338688Y0129290D01*
X0338345Y0129454D01*
X0337998Y0129611D01*
X0337647Y0129758D01*
X0337293Y0129898D01*
X0336936Y0130028D01*
X0336575Y0130150D01*
X0336212Y0130263D01*
X0335846Y0130368D01*
X0335478Y0130463D01*
X0335107Y0130550D01*
X0334735Y0130628D01*
X0334360Y0130696D01*
X0333984Y0130756D01*
X0333607Y0130806D01*
X0333229Y0130847D01*
X0332850Y0130880D01*
X0332470Y0130903D01*
X0332090Y0130916D01*
X0331709Y0130921D01*
X0024622Y0130921D01*
X0024241Y0130916D01*
X0023861Y0130903D01*
X0023481Y0130880D01*
X0023102Y0130847D01*
X0022724Y0130806D01*
X0022347Y0130756D01*
X0021971Y0130696D01*
X0021596Y0130628D01*
X0021224Y0130550D01*
X0020853Y0130463D01*
X0020485Y0130368D01*
X0020119Y0130263D01*
X0019756Y0130150D01*
X0019395Y0130028D01*
X0019038Y0129898D01*
X0018684Y0129758D01*
X0018333Y0129611D01*
X0017986Y0129454D01*
X0017643Y0129290D01*
X0017304Y0129117D01*
X0016969Y0128936D01*
X0016638Y0128747D01*
X0016313Y0128550D01*
X0015992Y0128346D01*
X0015676Y0128133D01*
X0015366Y0127913D01*
X0015060Y0127686D01*
X0014761Y0127451D01*
X0014467Y0127209D01*
X0014179Y0126961D01*
X0013897Y0126705D01*
X0013622Y0126442D01*
X0013353Y0126173D01*
X0013090Y0125898D01*
X0012834Y0125616D01*
X0012586Y0125328D01*
X0012344Y0125034D01*
X0012109Y0124735D01*
X0011882Y0124429D01*
X0011662Y0124119D01*
X0011449Y0123803D01*
X0011245Y0123482D01*
X0011048Y0123157D01*
X0010859Y0122826D01*
X0010678Y0122491D01*
X0010505Y0122152D01*
X0010341Y0121809D01*
X0010184Y0121462D01*
X0010037Y0121111D01*
X0009897Y0120757D01*
X0009767Y0120400D01*
X0009645Y0120039D01*
X0009532Y0119676D01*
X0009427Y0119310D01*
X0009332Y0118942D01*
X0009245Y0118571D01*
X0009167Y0118199D01*
X0009099Y0117824D01*
X0009039Y0117448D01*
X0008989Y0117071D01*
X0008948Y0116693D01*
X0008915Y0116314D01*
X0008892Y0115934D01*
X0008879Y0115554D01*
X0008874Y0115173D01*
X0008874Y0024622D01*
X0008879Y0024241D01*
X0008892Y0023861D01*
X0008915Y0023481D01*
X0008948Y0023102D01*
X0008989Y0022724D01*
X0009039Y0022347D01*
X0009099Y0021971D01*
X0009167Y0021596D01*
X0009245Y0021224D01*
X0009332Y0020853D01*
X0009427Y0020485D01*
X0009532Y0020119D01*
X0009645Y0019756D01*
X0009767Y0019395D01*
X0009897Y0019038D01*
X0010037Y0018684D01*
X0010184Y0018333D01*
X0010341Y0017986D01*
X0010505Y0017643D01*
X0010678Y0017304D01*
X0010859Y0016969D01*
X0011048Y0016638D01*
X0011245Y0016313D01*
X0011449Y0015992D01*
X0011662Y0015676D01*
X0011882Y0015366D01*
X0012109Y0015060D01*
X0012344Y0014761D01*
X0012586Y0014467D01*
X0012834Y0014179D01*
X0013090Y0013897D01*
X0013353Y0013622D01*
X0013622Y0013353D01*
X0013897Y0013090D01*
X0014179Y0012834D01*
X0014467Y0012586D01*
X0014761Y0012344D01*
X0015060Y0012109D01*
X0015366Y0011882D01*
X0015676Y0011662D01*
X0015992Y0011449D01*
X0016313Y0011245D01*
X0016638Y0011048D01*
X0016969Y0010859D01*
X0017304Y0010678D01*
X0017643Y0010505D01*
X0017986Y0010341D01*
X0018333Y0010184D01*
X0018684Y0010037D01*
X0019038Y0009897D01*
X0019395Y0009767D01*
X0019756Y0009645D01*
X0020119Y0009532D01*
X0020485Y0009427D01*
X0020853Y0009332D01*
X0021224Y0009245D01*
X0021596Y0009167D01*
X0021971Y0009099D01*
X0022347Y0009039D01*
X0022724Y0008989D01*
X0023102Y0008948D01*
X0023481Y0008915D01*
X0023861Y0008892D01*
X0024241Y0008879D01*
X0024622Y0008874D01*
X0062023Y0030528D02*
X0062025Y0030681D01*
X0062031Y0030835D01*
X0062041Y0030988D01*
X0062055Y0031140D01*
X0062073Y0031293D01*
X0062095Y0031444D01*
X0062120Y0031595D01*
X0062150Y0031746D01*
X0062184Y0031896D01*
X0062221Y0032044D01*
X0062262Y0032192D01*
X0062307Y0032338D01*
X0062356Y0032484D01*
X0062409Y0032628D01*
X0062465Y0032770D01*
X0062525Y0032911D01*
X0062589Y0033051D01*
X0062656Y0033189D01*
X0062727Y0033325D01*
X0062802Y0033459D01*
X0062879Y0033591D01*
X0062961Y0033721D01*
X0063045Y0033849D01*
X0063133Y0033975D01*
X0063224Y0034098D01*
X0063318Y0034219D01*
X0063416Y0034337D01*
X0063516Y0034453D01*
X0063620Y0034566D01*
X0063726Y0034677D01*
X0063835Y0034785D01*
X0063947Y0034890D01*
X0064061Y0034991D01*
X0064179Y0035090D01*
X0064298Y0035186D01*
X0064420Y0035279D01*
X0064545Y0035368D01*
X0064672Y0035455D01*
X0064801Y0035537D01*
X0064932Y0035617D01*
X0065065Y0035693D01*
X0065200Y0035766D01*
X0065337Y0035835D01*
X0065476Y0035900D01*
X0065616Y0035962D01*
X0065758Y0036020D01*
X0065901Y0036075D01*
X0066046Y0036126D01*
X0066192Y0036173D01*
X0066339Y0036216D01*
X0066487Y0036255D01*
X0066636Y0036291D01*
X0066786Y0036322D01*
X0066937Y0036350D01*
X0067088Y0036374D01*
X0067241Y0036394D01*
X0067393Y0036410D01*
X0067546Y0036422D01*
X0067699Y0036430D01*
X0067852Y0036434D01*
X0068006Y0036434D01*
X0068159Y0036430D01*
X0068312Y0036422D01*
X0068465Y0036410D01*
X0068617Y0036394D01*
X0068770Y0036374D01*
X0068921Y0036350D01*
X0069072Y0036322D01*
X0069222Y0036291D01*
X0069371Y0036255D01*
X0069519Y0036216D01*
X0069666Y0036173D01*
X0069812Y0036126D01*
X0069957Y0036075D01*
X0070100Y0036020D01*
X0070242Y0035962D01*
X0070382Y0035900D01*
X0070521Y0035835D01*
X0070658Y0035766D01*
X0070793Y0035693D01*
X0070926Y0035617D01*
X0071057Y0035537D01*
X0071186Y0035455D01*
X0071313Y0035368D01*
X0071438Y0035279D01*
X0071560Y0035186D01*
X0071679Y0035090D01*
X0071797Y0034991D01*
X0071911Y0034890D01*
X0072023Y0034785D01*
X0072132Y0034677D01*
X0072238Y0034566D01*
X0072342Y0034453D01*
X0072442Y0034337D01*
X0072540Y0034219D01*
X0072634Y0034098D01*
X0072725Y0033975D01*
X0072813Y0033849D01*
X0072897Y0033721D01*
X0072979Y0033591D01*
X0073056Y0033459D01*
X0073131Y0033325D01*
X0073202Y0033189D01*
X0073269Y0033051D01*
X0073333Y0032911D01*
X0073393Y0032770D01*
X0073449Y0032628D01*
X0073502Y0032484D01*
X0073551Y0032338D01*
X0073596Y0032192D01*
X0073637Y0032044D01*
X0073674Y0031896D01*
X0073708Y0031746D01*
X0073738Y0031595D01*
X0073763Y0031444D01*
X0073785Y0031293D01*
X0073803Y0031140D01*
X0073817Y0030988D01*
X0073827Y0030835D01*
X0073833Y0030681D01*
X0073835Y0030528D01*
X0073833Y0030375D01*
X0073827Y0030221D01*
X0073817Y0030068D01*
X0073803Y0029916D01*
X0073785Y0029763D01*
X0073763Y0029612D01*
X0073738Y0029461D01*
X0073708Y0029310D01*
X0073674Y0029160D01*
X0073637Y0029012D01*
X0073596Y0028864D01*
X0073551Y0028718D01*
X0073502Y0028572D01*
X0073449Y0028428D01*
X0073393Y0028286D01*
X0073333Y0028145D01*
X0073269Y0028005D01*
X0073202Y0027867D01*
X0073131Y0027731D01*
X0073056Y0027597D01*
X0072979Y0027465D01*
X0072897Y0027335D01*
X0072813Y0027207D01*
X0072725Y0027081D01*
X0072634Y0026958D01*
X0072540Y0026837D01*
X0072442Y0026719D01*
X0072342Y0026603D01*
X0072238Y0026490D01*
X0072132Y0026379D01*
X0072023Y0026271D01*
X0071911Y0026166D01*
X0071797Y0026065D01*
X0071679Y0025966D01*
X0071560Y0025870D01*
X0071438Y0025777D01*
X0071313Y0025688D01*
X0071186Y0025601D01*
X0071057Y0025519D01*
X0070926Y0025439D01*
X0070793Y0025363D01*
X0070658Y0025290D01*
X0070521Y0025221D01*
X0070382Y0025156D01*
X0070242Y0025094D01*
X0070100Y0025036D01*
X0069957Y0024981D01*
X0069812Y0024930D01*
X0069666Y0024883D01*
X0069519Y0024840D01*
X0069371Y0024801D01*
X0069222Y0024765D01*
X0069072Y0024734D01*
X0068921Y0024706D01*
X0068770Y0024682D01*
X0068617Y0024662D01*
X0068465Y0024646D01*
X0068312Y0024634D01*
X0068159Y0024626D01*
X0068006Y0024622D01*
X0067852Y0024622D01*
X0067699Y0024626D01*
X0067546Y0024634D01*
X0067393Y0024646D01*
X0067241Y0024662D01*
X0067088Y0024682D01*
X0066937Y0024706D01*
X0066786Y0024734D01*
X0066636Y0024765D01*
X0066487Y0024801D01*
X0066339Y0024840D01*
X0066192Y0024883D01*
X0066046Y0024930D01*
X0065901Y0024981D01*
X0065758Y0025036D01*
X0065616Y0025094D01*
X0065476Y0025156D01*
X0065337Y0025221D01*
X0065200Y0025290D01*
X0065065Y0025363D01*
X0064932Y0025439D01*
X0064801Y0025519D01*
X0064672Y0025601D01*
X0064545Y0025688D01*
X0064420Y0025777D01*
X0064298Y0025870D01*
X0064179Y0025966D01*
X0064061Y0026065D01*
X0063947Y0026166D01*
X0063835Y0026271D01*
X0063726Y0026379D01*
X0063620Y0026490D01*
X0063516Y0026603D01*
X0063416Y0026719D01*
X0063318Y0026837D01*
X0063224Y0026958D01*
X0063133Y0027081D01*
X0063045Y0027207D01*
X0062961Y0027335D01*
X0062879Y0027465D01*
X0062802Y0027597D01*
X0062727Y0027731D01*
X0062656Y0027867D01*
X0062589Y0028005D01*
X0062525Y0028145D01*
X0062465Y0028286D01*
X0062409Y0028428D01*
X0062356Y0028572D01*
X0062307Y0028718D01*
X0062262Y0028864D01*
X0062221Y0029012D01*
X0062184Y0029160D01*
X0062150Y0029310D01*
X0062120Y0029461D01*
X0062095Y0029612D01*
X0062073Y0029763D01*
X0062055Y0029916D01*
X0062041Y0030068D01*
X0062031Y0030221D01*
X0062025Y0030375D01*
X0062023Y0030528D01*
X0117141Y0030528D02*
X0117143Y0030681D01*
X0117149Y0030835D01*
X0117159Y0030988D01*
X0117173Y0031140D01*
X0117191Y0031293D01*
X0117213Y0031444D01*
X0117238Y0031595D01*
X0117268Y0031746D01*
X0117302Y0031896D01*
X0117339Y0032044D01*
X0117380Y0032192D01*
X0117425Y0032338D01*
X0117474Y0032484D01*
X0117527Y0032628D01*
X0117583Y0032770D01*
X0117643Y0032911D01*
X0117707Y0033051D01*
X0117774Y0033189D01*
X0117845Y0033325D01*
X0117920Y0033459D01*
X0117997Y0033591D01*
X0118079Y0033721D01*
X0118163Y0033849D01*
X0118251Y0033975D01*
X0118342Y0034098D01*
X0118436Y0034219D01*
X0118534Y0034337D01*
X0118634Y0034453D01*
X0118738Y0034566D01*
X0118844Y0034677D01*
X0118953Y0034785D01*
X0119065Y0034890D01*
X0119179Y0034991D01*
X0119297Y0035090D01*
X0119416Y0035186D01*
X0119538Y0035279D01*
X0119663Y0035368D01*
X0119790Y0035455D01*
X0119919Y0035537D01*
X0120050Y0035617D01*
X0120183Y0035693D01*
X0120318Y0035766D01*
X0120455Y0035835D01*
X0120594Y0035900D01*
X0120734Y0035962D01*
X0120876Y0036020D01*
X0121019Y0036075D01*
X0121164Y0036126D01*
X0121310Y0036173D01*
X0121457Y0036216D01*
X0121605Y0036255D01*
X0121754Y0036291D01*
X0121904Y0036322D01*
X0122055Y0036350D01*
X0122206Y0036374D01*
X0122359Y0036394D01*
X0122511Y0036410D01*
X0122664Y0036422D01*
X0122817Y0036430D01*
X0122970Y0036434D01*
X0123124Y0036434D01*
X0123277Y0036430D01*
X0123430Y0036422D01*
X0123583Y0036410D01*
X0123735Y0036394D01*
X0123888Y0036374D01*
X0124039Y0036350D01*
X0124190Y0036322D01*
X0124340Y0036291D01*
X0124489Y0036255D01*
X0124637Y0036216D01*
X0124784Y0036173D01*
X0124930Y0036126D01*
X0125075Y0036075D01*
X0125218Y0036020D01*
X0125360Y0035962D01*
X0125500Y0035900D01*
X0125639Y0035835D01*
X0125776Y0035766D01*
X0125911Y0035693D01*
X0126044Y0035617D01*
X0126175Y0035537D01*
X0126304Y0035455D01*
X0126431Y0035368D01*
X0126556Y0035279D01*
X0126678Y0035186D01*
X0126797Y0035090D01*
X0126915Y0034991D01*
X0127029Y0034890D01*
X0127141Y0034785D01*
X0127250Y0034677D01*
X0127356Y0034566D01*
X0127460Y0034453D01*
X0127560Y0034337D01*
X0127658Y0034219D01*
X0127752Y0034098D01*
X0127843Y0033975D01*
X0127931Y0033849D01*
X0128015Y0033721D01*
X0128097Y0033591D01*
X0128174Y0033459D01*
X0128249Y0033325D01*
X0128320Y0033189D01*
X0128387Y0033051D01*
X0128451Y0032911D01*
X0128511Y0032770D01*
X0128567Y0032628D01*
X0128620Y0032484D01*
X0128669Y0032338D01*
X0128714Y0032192D01*
X0128755Y0032044D01*
X0128792Y0031896D01*
X0128826Y0031746D01*
X0128856Y0031595D01*
X0128881Y0031444D01*
X0128903Y0031293D01*
X0128921Y0031140D01*
X0128935Y0030988D01*
X0128945Y0030835D01*
X0128951Y0030681D01*
X0128953Y0030528D01*
X0128951Y0030375D01*
X0128945Y0030221D01*
X0128935Y0030068D01*
X0128921Y0029916D01*
X0128903Y0029763D01*
X0128881Y0029612D01*
X0128856Y0029461D01*
X0128826Y0029310D01*
X0128792Y0029160D01*
X0128755Y0029012D01*
X0128714Y0028864D01*
X0128669Y0028718D01*
X0128620Y0028572D01*
X0128567Y0028428D01*
X0128511Y0028286D01*
X0128451Y0028145D01*
X0128387Y0028005D01*
X0128320Y0027867D01*
X0128249Y0027731D01*
X0128174Y0027597D01*
X0128097Y0027465D01*
X0128015Y0027335D01*
X0127931Y0027207D01*
X0127843Y0027081D01*
X0127752Y0026958D01*
X0127658Y0026837D01*
X0127560Y0026719D01*
X0127460Y0026603D01*
X0127356Y0026490D01*
X0127250Y0026379D01*
X0127141Y0026271D01*
X0127029Y0026166D01*
X0126915Y0026065D01*
X0126797Y0025966D01*
X0126678Y0025870D01*
X0126556Y0025777D01*
X0126431Y0025688D01*
X0126304Y0025601D01*
X0126175Y0025519D01*
X0126044Y0025439D01*
X0125911Y0025363D01*
X0125776Y0025290D01*
X0125639Y0025221D01*
X0125500Y0025156D01*
X0125360Y0025094D01*
X0125218Y0025036D01*
X0125075Y0024981D01*
X0124930Y0024930D01*
X0124784Y0024883D01*
X0124637Y0024840D01*
X0124489Y0024801D01*
X0124340Y0024765D01*
X0124190Y0024734D01*
X0124039Y0024706D01*
X0123888Y0024682D01*
X0123735Y0024662D01*
X0123583Y0024646D01*
X0123430Y0024634D01*
X0123277Y0024626D01*
X0123124Y0024622D01*
X0122970Y0024622D01*
X0122817Y0024626D01*
X0122664Y0024634D01*
X0122511Y0024646D01*
X0122359Y0024662D01*
X0122206Y0024682D01*
X0122055Y0024706D01*
X0121904Y0024734D01*
X0121754Y0024765D01*
X0121605Y0024801D01*
X0121457Y0024840D01*
X0121310Y0024883D01*
X0121164Y0024930D01*
X0121019Y0024981D01*
X0120876Y0025036D01*
X0120734Y0025094D01*
X0120594Y0025156D01*
X0120455Y0025221D01*
X0120318Y0025290D01*
X0120183Y0025363D01*
X0120050Y0025439D01*
X0119919Y0025519D01*
X0119790Y0025601D01*
X0119663Y0025688D01*
X0119538Y0025777D01*
X0119416Y0025870D01*
X0119297Y0025966D01*
X0119179Y0026065D01*
X0119065Y0026166D01*
X0118953Y0026271D01*
X0118844Y0026379D01*
X0118738Y0026490D01*
X0118634Y0026603D01*
X0118534Y0026719D01*
X0118436Y0026837D01*
X0118342Y0026958D01*
X0118251Y0027081D01*
X0118163Y0027207D01*
X0118079Y0027335D01*
X0117997Y0027465D01*
X0117920Y0027597D01*
X0117845Y0027731D01*
X0117774Y0027867D01*
X0117707Y0028005D01*
X0117643Y0028145D01*
X0117583Y0028286D01*
X0117527Y0028428D01*
X0117474Y0028572D01*
X0117425Y0028718D01*
X0117380Y0028864D01*
X0117339Y0029012D01*
X0117302Y0029160D01*
X0117268Y0029310D01*
X0117238Y0029461D01*
X0117213Y0029612D01*
X0117191Y0029763D01*
X0117173Y0029916D01*
X0117159Y0030068D01*
X0117149Y0030221D01*
X0117143Y0030375D01*
X0117141Y0030528D01*
X0171669Y0030409D02*
X0171671Y0030562D01*
X0171677Y0030716D01*
X0171687Y0030869D01*
X0171701Y0031021D01*
X0171719Y0031174D01*
X0171741Y0031325D01*
X0171766Y0031476D01*
X0171796Y0031627D01*
X0171830Y0031777D01*
X0171867Y0031925D01*
X0171908Y0032073D01*
X0171953Y0032219D01*
X0172002Y0032365D01*
X0172055Y0032509D01*
X0172111Y0032651D01*
X0172171Y0032792D01*
X0172235Y0032932D01*
X0172302Y0033070D01*
X0172373Y0033206D01*
X0172448Y0033340D01*
X0172525Y0033472D01*
X0172607Y0033602D01*
X0172691Y0033730D01*
X0172779Y0033856D01*
X0172870Y0033979D01*
X0172964Y0034100D01*
X0173062Y0034218D01*
X0173162Y0034334D01*
X0173266Y0034447D01*
X0173372Y0034558D01*
X0173481Y0034666D01*
X0173593Y0034771D01*
X0173707Y0034872D01*
X0173825Y0034971D01*
X0173944Y0035067D01*
X0174066Y0035160D01*
X0174191Y0035249D01*
X0174318Y0035336D01*
X0174447Y0035418D01*
X0174578Y0035498D01*
X0174711Y0035574D01*
X0174846Y0035647D01*
X0174983Y0035716D01*
X0175122Y0035781D01*
X0175262Y0035843D01*
X0175404Y0035901D01*
X0175547Y0035956D01*
X0175692Y0036007D01*
X0175838Y0036054D01*
X0175985Y0036097D01*
X0176133Y0036136D01*
X0176282Y0036172D01*
X0176432Y0036203D01*
X0176583Y0036231D01*
X0176734Y0036255D01*
X0176887Y0036275D01*
X0177039Y0036291D01*
X0177192Y0036303D01*
X0177345Y0036311D01*
X0177498Y0036315D01*
X0177652Y0036315D01*
X0177805Y0036311D01*
X0177958Y0036303D01*
X0178111Y0036291D01*
X0178263Y0036275D01*
X0178416Y0036255D01*
X0178567Y0036231D01*
X0178718Y0036203D01*
X0178868Y0036172D01*
X0179017Y0036136D01*
X0179165Y0036097D01*
X0179312Y0036054D01*
X0179458Y0036007D01*
X0179603Y0035956D01*
X0179746Y0035901D01*
X0179888Y0035843D01*
X0180028Y0035781D01*
X0180167Y0035716D01*
X0180304Y0035647D01*
X0180439Y0035574D01*
X0180572Y0035498D01*
X0180703Y0035418D01*
X0180832Y0035336D01*
X0180959Y0035249D01*
X0181084Y0035160D01*
X0181206Y0035067D01*
X0181325Y0034971D01*
X0181443Y0034872D01*
X0181557Y0034771D01*
X0181669Y0034666D01*
X0181778Y0034558D01*
X0181884Y0034447D01*
X0181988Y0034334D01*
X0182088Y0034218D01*
X0182186Y0034100D01*
X0182280Y0033979D01*
X0182371Y0033856D01*
X0182459Y0033730D01*
X0182543Y0033602D01*
X0182625Y0033472D01*
X0182702Y0033340D01*
X0182777Y0033206D01*
X0182848Y0033070D01*
X0182915Y0032932D01*
X0182979Y0032792D01*
X0183039Y0032651D01*
X0183095Y0032509D01*
X0183148Y0032365D01*
X0183197Y0032219D01*
X0183242Y0032073D01*
X0183283Y0031925D01*
X0183320Y0031777D01*
X0183354Y0031627D01*
X0183384Y0031476D01*
X0183409Y0031325D01*
X0183431Y0031174D01*
X0183449Y0031021D01*
X0183463Y0030869D01*
X0183473Y0030716D01*
X0183479Y0030562D01*
X0183481Y0030409D01*
X0183479Y0030256D01*
X0183473Y0030102D01*
X0183463Y0029949D01*
X0183449Y0029797D01*
X0183431Y0029644D01*
X0183409Y0029493D01*
X0183384Y0029342D01*
X0183354Y0029191D01*
X0183320Y0029041D01*
X0183283Y0028893D01*
X0183242Y0028745D01*
X0183197Y0028599D01*
X0183148Y0028453D01*
X0183095Y0028309D01*
X0183039Y0028167D01*
X0182979Y0028026D01*
X0182915Y0027886D01*
X0182848Y0027748D01*
X0182777Y0027612D01*
X0182702Y0027478D01*
X0182625Y0027346D01*
X0182543Y0027216D01*
X0182459Y0027088D01*
X0182371Y0026962D01*
X0182280Y0026839D01*
X0182186Y0026718D01*
X0182088Y0026600D01*
X0181988Y0026484D01*
X0181884Y0026371D01*
X0181778Y0026260D01*
X0181669Y0026152D01*
X0181557Y0026047D01*
X0181443Y0025946D01*
X0181325Y0025847D01*
X0181206Y0025751D01*
X0181084Y0025658D01*
X0180959Y0025569D01*
X0180832Y0025482D01*
X0180703Y0025400D01*
X0180572Y0025320D01*
X0180439Y0025244D01*
X0180304Y0025171D01*
X0180167Y0025102D01*
X0180028Y0025037D01*
X0179888Y0024975D01*
X0179746Y0024917D01*
X0179603Y0024862D01*
X0179458Y0024811D01*
X0179312Y0024764D01*
X0179165Y0024721D01*
X0179017Y0024682D01*
X0178868Y0024646D01*
X0178718Y0024615D01*
X0178567Y0024587D01*
X0178416Y0024563D01*
X0178263Y0024543D01*
X0178111Y0024527D01*
X0177958Y0024515D01*
X0177805Y0024507D01*
X0177652Y0024503D01*
X0177498Y0024503D01*
X0177345Y0024507D01*
X0177192Y0024515D01*
X0177039Y0024527D01*
X0176887Y0024543D01*
X0176734Y0024563D01*
X0176583Y0024587D01*
X0176432Y0024615D01*
X0176282Y0024646D01*
X0176133Y0024682D01*
X0175985Y0024721D01*
X0175838Y0024764D01*
X0175692Y0024811D01*
X0175547Y0024862D01*
X0175404Y0024917D01*
X0175262Y0024975D01*
X0175122Y0025037D01*
X0174983Y0025102D01*
X0174846Y0025171D01*
X0174711Y0025244D01*
X0174578Y0025320D01*
X0174447Y0025400D01*
X0174318Y0025482D01*
X0174191Y0025569D01*
X0174066Y0025658D01*
X0173944Y0025751D01*
X0173825Y0025847D01*
X0173707Y0025946D01*
X0173593Y0026047D01*
X0173481Y0026152D01*
X0173372Y0026260D01*
X0173266Y0026371D01*
X0173162Y0026484D01*
X0173062Y0026600D01*
X0172964Y0026718D01*
X0172870Y0026839D01*
X0172779Y0026962D01*
X0172691Y0027088D01*
X0172607Y0027216D01*
X0172525Y0027346D01*
X0172448Y0027478D01*
X0172373Y0027612D01*
X0172302Y0027748D01*
X0172235Y0027886D01*
X0172171Y0028026D01*
X0172111Y0028167D01*
X0172055Y0028309D01*
X0172002Y0028453D01*
X0171953Y0028599D01*
X0171908Y0028745D01*
X0171867Y0028893D01*
X0171830Y0029041D01*
X0171796Y0029191D01*
X0171766Y0029342D01*
X0171741Y0029493D01*
X0171719Y0029644D01*
X0171701Y0029797D01*
X0171687Y0029949D01*
X0171677Y0030102D01*
X0171671Y0030256D01*
X0171669Y0030409D01*
X0227377Y0030528D02*
X0227379Y0030681D01*
X0227385Y0030835D01*
X0227395Y0030988D01*
X0227409Y0031140D01*
X0227427Y0031293D01*
X0227449Y0031444D01*
X0227474Y0031595D01*
X0227504Y0031746D01*
X0227538Y0031896D01*
X0227575Y0032044D01*
X0227616Y0032192D01*
X0227661Y0032338D01*
X0227710Y0032484D01*
X0227763Y0032628D01*
X0227819Y0032770D01*
X0227879Y0032911D01*
X0227943Y0033051D01*
X0228010Y0033189D01*
X0228081Y0033325D01*
X0228156Y0033459D01*
X0228233Y0033591D01*
X0228315Y0033721D01*
X0228399Y0033849D01*
X0228487Y0033975D01*
X0228578Y0034098D01*
X0228672Y0034219D01*
X0228770Y0034337D01*
X0228870Y0034453D01*
X0228974Y0034566D01*
X0229080Y0034677D01*
X0229189Y0034785D01*
X0229301Y0034890D01*
X0229415Y0034991D01*
X0229533Y0035090D01*
X0229652Y0035186D01*
X0229774Y0035279D01*
X0229899Y0035368D01*
X0230026Y0035455D01*
X0230155Y0035537D01*
X0230286Y0035617D01*
X0230419Y0035693D01*
X0230554Y0035766D01*
X0230691Y0035835D01*
X0230830Y0035900D01*
X0230970Y0035962D01*
X0231112Y0036020D01*
X0231255Y0036075D01*
X0231400Y0036126D01*
X0231546Y0036173D01*
X0231693Y0036216D01*
X0231841Y0036255D01*
X0231990Y0036291D01*
X0232140Y0036322D01*
X0232291Y0036350D01*
X0232442Y0036374D01*
X0232595Y0036394D01*
X0232747Y0036410D01*
X0232900Y0036422D01*
X0233053Y0036430D01*
X0233206Y0036434D01*
X0233360Y0036434D01*
X0233513Y0036430D01*
X0233666Y0036422D01*
X0233819Y0036410D01*
X0233971Y0036394D01*
X0234124Y0036374D01*
X0234275Y0036350D01*
X0234426Y0036322D01*
X0234576Y0036291D01*
X0234725Y0036255D01*
X0234873Y0036216D01*
X0235020Y0036173D01*
X0235166Y0036126D01*
X0235311Y0036075D01*
X0235454Y0036020D01*
X0235596Y0035962D01*
X0235736Y0035900D01*
X0235875Y0035835D01*
X0236012Y0035766D01*
X0236147Y0035693D01*
X0236280Y0035617D01*
X0236411Y0035537D01*
X0236540Y0035455D01*
X0236667Y0035368D01*
X0236792Y0035279D01*
X0236914Y0035186D01*
X0237033Y0035090D01*
X0237151Y0034991D01*
X0237265Y0034890D01*
X0237377Y0034785D01*
X0237486Y0034677D01*
X0237592Y0034566D01*
X0237696Y0034453D01*
X0237796Y0034337D01*
X0237894Y0034219D01*
X0237988Y0034098D01*
X0238079Y0033975D01*
X0238167Y0033849D01*
X0238251Y0033721D01*
X0238333Y0033591D01*
X0238410Y0033459D01*
X0238485Y0033325D01*
X0238556Y0033189D01*
X0238623Y0033051D01*
X0238687Y0032911D01*
X0238747Y0032770D01*
X0238803Y0032628D01*
X0238856Y0032484D01*
X0238905Y0032338D01*
X0238950Y0032192D01*
X0238991Y0032044D01*
X0239028Y0031896D01*
X0239062Y0031746D01*
X0239092Y0031595D01*
X0239117Y0031444D01*
X0239139Y0031293D01*
X0239157Y0031140D01*
X0239171Y0030988D01*
X0239181Y0030835D01*
X0239187Y0030681D01*
X0239189Y0030528D01*
X0239187Y0030375D01*
X0239181Y0030221D01*
X0239171Y0030068D01*
X0239157Y0029916D01*
X0239139Y0029763D01*
X0239117Y0029612D01*
X0239092Y0029461D01*
X0239062Y0029310D01*
X0239028Y0029160D01*
X0238991Y0029012D01*
X0238950Y0028864D01*
X0238905Y0028718D01*
X0238856Y0028572D01*
X0238803Y0028428D01*
X0238747Y0028286D01*
X0238687Y0028145D01*
X0238623Y0028005D01*
X0238556Y0027867D01*
X0238485Y0027731D01*
X0238410Y0027597D01*
X0238333Y0027465D01*
X0238251Y0027335D01*
X0238167Y0027207D01*
X0238079Y0027081D01*
X0237988Y0026958D01*
X0237894Y0026837D01*
X0237796Y0026719D01*
X0237696Y0026603D01*
X0237592Y0026490D01*
X0237486Y0026379D01*
X0237377Y0026271D01*
X0237265Y0026166D01*
X0237151Y0026065D01*
X0237033Y0025966D01*
X0236914Y0025870D01*
X0236792Y0025777D01*
X0236667Y0025688D01*
X0236540Y0025601D01*
X0236411Y0025519D01*
X0236280Y0025439D01*
X0236147Y0025363D01*
X0236012Y0025290D01*
X0235875Y0025221D01*
X0235736Y0025156D01*
X0235596Y0025094D01*
X0235454Y0025036D01*
X0235311Y0024981D01*
X0235166Y0024930D01*
X0235020Y0024883D01*
X0234873Y0024840D01*
X0234725Y0024801D01*
X0234576Y0024765D01*
X0234426Y0024734D01*
X0234275Y0024706D01*
X0234124Y0024682D01*
X0233971Y0024662D01*
X0233819Y0024646D01*
X0233666Y0024634D01*
X0233513Y0024626D01*
X0233360Y0024622D01*
X0233206Y0024622D01*
X0233053Y0024626D01*
X0232900Y0024634D01*
X0232747Y0024646D01*
X0232595Y0024662D01*
X0232442Y0024682D01*
X0232291Y0024706D01*
X0232140Y0024734D01*
X0231990Y0024765D01*
X0231841Y0024801D01*
X0231693Y0024840D01*
X0231546Y0024883D01*
X0231400Y0024930D01*
X0231255Y0024981D01*
X0231112Y0025036D01*
X0230970Y0025094D01*
X0230830Y0025156D01*
X0230691Y0025221D01*
X0230554Y0025290D01*
X0230419Y0025363D01*
X0230286Y0025439D01*
X0230155Y0025519D01*
X0230026Y0025601D01*
X0229899Y0025688D01*
X0229774Y0025777D01*
X0229652Y0025870D01*
X0229533Y0025966D01*
X0229415Y0026065D01*
X0229301Y0026166D01*
X0229189Y0026271D01*
X0229080Y0026379D01*
X0228974Y0026490D01*
X0228870Y0026603D01*
X0228770Y0026719D01*
X0228672Y0026837D01*
X0228578Y0026958D01*
X0228487Y0027081D01*
X0228399Y0027207D01*
X0228315Y0027335D01*
X0228233Y0027465D01*
X0228156Y0027597D01*
X0228081Y0027731D01*
X0228010Y0027867D01*
X0227943Y0028005D01*
X0227879Y0028145D01*
X0227819Y0028286D01*
X0227763Y0028428D01*
X0227710Y0028572D01*
X0227661Y0028718D01*
X0227616Y0028864D01*
X0227575Y0029012D01*
X0227538Y0029160D01*
X0227504Y0029310D01*
X0227474Y0029461D01*
X0227449Y0029612D01*
X0227427Y0029763D01*
X0227409Y0029916D01*
X0227395Y0030068D01*
X0227385Y0030221D01*
X0227379Y0030375D01*
X0227377Y0030528D01*
X0282496Y0030528D02*
X0282498Y0030681D01*
X0282504Y0030835D01*
X0282514Y0030988D01*
X0282528Y0031140D01*
X0282546Y0031293D01*
X0282568Y0031444D01*
X0282593Y0031595D01*
X0282623Y0031746D01*
X0282657Y0031896D01*
X0282694Y0032044D01*
X0282735Y0032192D01*
X0282780Y0032338D01*
X0282829Y0032484D01*
X0282882Y0032628D01*
X0282938Y0032770D01*
X0282998Y0032911D01*
X0283062Y0033051D01*
X0283129Y0033189D01*
X0283200Y0033325D01*
X0283275Y0033459D01*
X0283352Y0033591D01*
X0283434Y0033721D01*
X0283518Y0033849D01*
X0283606Y0033975D01*
X0283697Y0034098D01*
X0283791Y0034219D01*
X0283889Y0034337D01*
X0283989Y0034453D01*
X0284093Y0034566D01*
X0284199Y0034677D01*
X0284308Y0034785D01*
X0284420Y0034890D01*
X0284534Y0034991D01*
X0284652Y0035090D01*
X0284771Y0035186D01*
X0284893Y0035279D01*
X0285018Y0035368D01*
X0285145Y0035455D01*
X0285274Y0035537D01*
X0285405Y0035617D01*
X0285538Y0035693D01*
X0285673Y0035766D01*
X0285810Y0035835D01*
X0285949Y0035900D01*
X0286089Y0035962D01*
X0286231Y0036020D01*
X0286374Y0036075D01*
X0286519Y0036126D01*
X0286665Y0036173D01*
X0286812Y0036216D01*
X0286960Y0036255D01*
X0287109Y0036291D01*
X0287259Y0036322D01*
X0287410Y0036350D01*
X0287561Y0036374D01*
X0287714Y0036394D01*
X0287866Y0036410D01*
X0288019Y0036422D01*
X0288172Y0036430D01*
X0288325Y0036434D01*
X0288479Y0036434D01*
X0288632Y0036430D01*
X0288785Y0036422D01*
X0288938Y0036410D01*
X0289090Y0036394D01*
X0289243Y0036374D01*
X0289394Y0036350D01*
X0289545Y0036322D01*
X0289695Y0036291D01*
X0289844Y0036255D01*
X0289992Y0036216D01*
X0290139Y0036173D01*
X0290285Y0036126D01*
X0290430Y0036075D01*
X0290573Y0036020D01*
X0290715Y0035962D01*
X0290855Y0035900D01*
X0290994Y0035835D01*
X0291131Y0035766D01*
X0291266Y0035693D01*
X0291399Y0035617D01*
X0291530Y0035537D01*
X0291659Y0035455D01*
X0291786Y0035368D01*
X0291911Y0035279D01*
X0292033Y0035186D01*
X0292152Y0035090D01*
X0292270Y0034991D01*
X0292384Y0034890D01*
X0292496Y0034785D01*
X0292605Y0034677D01*
X0292711Y0034566D01*
X0292815Y0034453D01*
X0292915Y0034337D01*
X0293013Y0034219D01*
X0293107Y0034098D01*
X0293198Y0033975D01*
X0293286Y0033849D01*
X0293370Y0033721D01*
X0293452Y0033591D01*
X0293529Y0033459D01*
X0293604Y0033325D01*
X0293675Y0033189D01*
X0293742Y0033051D01*
X0293806Y0032911D01*
X0293866Y0032770D01*
X0293922Y0032628D01*
X0293975Y0032484D01*
X0294024Y0032338D01*
X0294069Y0032192D01*
X0294110Y0032044D01*
X0294147Y0031896D01*
X0294181Y0031746D01*
X0294211Y0031595D01*
X0294236Y0031444D01*
X0294258Y0031293D01*
X0294276Y0031140D01*
X0294290Y0030988D01*
X0294300Y0030835D01*
X0294306Y0030681D01*
X0294308Y0030528D01*
X0294306Y0030375D01*
X0294300Y0030221D01*
X0294290Y0030068D01*
X0294276Y0029916D01*
X0294258Y0029763D01*
X0294236Y0029612D01*
X0294211Y0029461D01*
X0294181Y0029310D01*
X0294147Y0029160D01*
X0294110Y0029012D01*
X0294069Y0028864D01*
X0294024Y0028718D01*
X0293975Y0028572D01*
X0293922Y0028428D01*
X0293866Y0028286D01*
X0293806Y0028145D01*
X0293742Y0028005D01*
X0293675Y0027867D01*
X0293604Y0027731D01*
X0293529Y0027597D01*
X0293452Y0027465D01*
X0293370Y0027335D01*
X0293286Y0027207D01*
X0293198Y0027081D01*
X0293107Y0026958D01*
X0293013Y0026837D01*
X0292915Y0026719D01*
X0292815Y0026603D01*
X0292711Y0026490D01*
X0292605Y0026379D01*
X0292496Y0026271D01*
X0292384Y0026166D01*
X0292270Y0026065D01*
X0292152Y0025966D01*
X0292033Y0025870D01*
X0291911Y0025777D01*
X0291786Y0025688D01*
X0291659Y0025601D01*
X0291530Y0025519D01*
X0291399Y0025439D01*
X0291266Y0025363D01*
X0291131Y0025290D01*
X0290994Y0025221D01*
X0290855Y0025156D01*
X0290715Y0025094D01*
X0290573Y0025036D01*
X0290430Y0024981D01*
X0290285Y0024930D01*
X0290139Y0024883D01*
X0289992Y0024840D01*
X0289844Y0024801D01*
X0289695Y0024765D01*
X0289545Y0024734D01*
X0289394Y0024706D01*
X0289243Y0024682D01*
X0289090Y0024662D01*
X0288938Y0024646D01*
X0288785Y0024634D01*
X0288632Y0024626D01*
X0288479Y0024622D01*
X0288325Y0024622D01*
X0288172Y0024626D01*
X0288019Y0024634D01*
X0287866Y0024646D01*
X0287714Y0024662D01*
X0287561Y0024682D01*
X0287410Y0024706D01*
X0287259Y0024734D01*
X0287109Y0024765D01*
X0286960Y0024801D01*
X0286812Y0024840D01*
X0286665Y0024883D01*
X0286519Y0024930D01*
X0286374Y0024981D01*
X0286231Y0025036D01*
X0286089Y0025094D01*
X0285949Y0025156D01*
X0285810Y0025221D01*
X0285673Y0025290D01*
X0285538Y0025363D01*
X0285405Y0025439D01*
X0285274Y0025519D01*
X0285145Y0025601D01*
X0285018Y0025688D01*
X0284893Y0025777D01*
X0284771Y0025870D01*
X0284652Y0025966D01*
X0284534Y0026065D01*
X0284420Y0026166D01*
X0284308Y0026271D01*
X0284199Y0026379D01*
X0284093Y0026490D01*
X0283989Y0026603D01*
X0283889Y0026719D01*
X0283791Y0026837D01*
X0283697Y0026958D01*
X0283606Y0027081D01*
X0283518Y0027207D01*
X0283434Y0027335D01*
X0283352Y0027465D01*
X0283275Y0027597D01*
X0283200Y0027731D01*
X0283129Y0027867D01*
X0283062Y0028005D01*
X0282998Y0028145D01*
X0282938Y0028286D01*
X0282882Y0028428D01*
X0282829Y0028572D01*
X0282780Y0028718D01*
X0282735Y0028864D01*
X0282694Y0029012D01*
X0282657Y0029160D01*
X0282623Y0029310D01*
X0282593Y0029461D01*
X0282568Y0029612D01*
X0282546Y0029763D01*
X0282528Y0029916D01*
X0282514Y0030068D01*
X0282504Y0030221D01*
X0282498Y0030375D01*
X0282496Y0030528D01*
X0282496Y0109268D02*
X0282498Y0109421D01*
X0282504Y0109575D01*
X0282514Y0109728D01*
X0282528Y0109880D01*
X0282546Y0110033D01*
X0282568Y0110184D01*
X0282593Y0110335D01*
X0282623Y0110486D01*
X0282657Y0110636D01*
X0282694Y0110784D01*
X0282735Y0110932D01*
X0282780Y0111078D01*
X0282829Y0111224D01*
X0282882Y0111368D01*
X0282938Y0111510D01*
X0282998Y0111651D01*
X0283062Y0111791D01*
X0283129Y0111929D01*
X0283200Y0112065D01*
X0283275Y0112199D01*
X0283352Y0112331D01*
X0283434Y0112461D01*
X0283518Y0112589D01*
X0283606Y0112715D01*
X0283697Y0112838D01*
X0283791Y0112959D01*
X0283889Y0113077D01*
X0283989Y0113193D01*
X0284093Y0113306D01*
X0284199Y0113417D01*
X0284308Y0113525D01*
X0284420Y0113630D01*
X0284534Y0113731D01*
X0284652Y0113830D01*
X0284771Y0113926D01*
X0284893Y0114019D01*
X0285018Y0114108D01*
X0285145Y0114195D01*
X0285274Y0114277D01*
X0285405Y0114357D01*
X0285538Y0114433D01*
X0285673Y0114506D01*
X0285810Y0114575D01*
X0285949Y0114640D01*
X0286089Y0114702D01*
X0286231Y0114760D01*
X0286374Y0114815D01*
X0286519Y0114866D01*
X0286665Y0114913D01*
X0286812Y0114956D01*
X0286960Y0114995D01*
X0287109Y0115031D01*
X0287259Y0115062D01*
X0287410Y0115090D01*
X0287561Y0115114D01*
X0287714Y0115134D01*
X0287866Y0115150D01*
X0288019Y0115162D01*
X0288172Y0115170D01*
X0288325Y0115174D01*
X0288479Y0115174D01*
X0288632Y0115170D01*
X0288785Y0115162D01*
X0288938Y0115150D01*
X0289090Y0115134D01*
X0289243Y0115114D01*
X0289394Y0115090D01*
X0289545Y0115062D01*
X0289695Y0115031D01*
X0289844Y0114995D01*
X0289992Y0114956D01*
X0290139Y0114913D01*
X0290285Y0114866D01*
X0290430Y0114815D01*
X0290573Y0114760D01*
X0290715Y0114702D01*
X0290855Y0114640D01*
X0290994Y0114575D01*
X0291131Y0114506D01*
X0291266Y0114433D01*
X0291399Y0114357D01*
X0291530Y0114277D01*
X0291659Y0114195D01*
X0291786Y0114108D01*
X0291911Y0114019D01*
X0292033Y0113926D01*
X0292152Y0113830D01*
X0292270Y0113731D01*
X0292384Y0113630D01*
X0292496Y0113525D01*
X0292605Y0113417D01*
X0292711Y0113306D01*
X0292815Y0113193D01*
X0292915Y0113077D01*
X0293013Y0112959D01*
X0293107Y0112838D01*
X0293198Y0112715D01*
X0293286Y0112589D01*
X0293370Y0112461D01*
X0293452Y0112331D01*
X0293529Y0112199D01*
X0293604Y0112065D01*
X0293675Y0111929D01*
X0293742Y0111791D01*
X0293806Y0111651D01*
X0293866Y0111510D01*
X0293922Y0111368D01*
X0293975Y0111224D01*
X0294024Y0111078D01*
X0294069Y0110932D01*
X0294110Y0110784D01*
X0294147Y0110636D01*
X0294181Y0110486D01*
X0294211Y0110335D01*
X0294236Y0110184D01*
X0294258Y0110033D01*
X0294276Y0109880D01*
X0294290Y0109728D01*
X0294300Y0109575D01*
X0294306Y0109421D01*
X0294308Y0109268D01*
X0294306Y0109115D01*
X0294300Y0108961D01*
X0294290Y0108808D01*
X0294276Y0108656D01*
X0294258Y0108503D01*
X0294236Y0108352D01*
X0294211Y0108201D01*
X0294181Y0108050D01*
X0294147Y0107900D01*
X0294110Y0107752D01*
X0294069Y0107604D01*
X0294024Y0107458D01*
X0293975Y0107312D01*
X0293922Y0107168D01*
X0293866Y0107026D01*
X0293806Y0106885D01*
X0293742Y0106745D01*
X0293675Y0106607D01*
X0293604Y0106471D01*
X0293529Y0106337D01*
X0293452Y0106205D01*
X0293370Y0106075D01*
X0293286Y0105947D01*
X0293198Y0105821D01*
X0293107Y0105698D01*
X0293013Y0105577D01*
X0292915Y0105459D01*
X0292815Y0105343D01*
X0292711Y0105230D01*
X0292605Y0105119D01*
X0292496Y0105011D01*
X0292384Y0104906D01*
X0292270Y0104805D01*
X0292152Y0104706D01*
X0292033Y0104610D01*
X0291911Y0104517D01*
X0291786Y0104428D01*
X0291659Y0104341D01*
X0291530Y0104259D01*
X0291399Y0104179D01*
X0291266Y0104103D01*
X0291131Y0104030D01*
X0290994Y0103961D01*
X0290855Y0103896D01*
X0290715Y0103834D01*
X0290573Y0103776D01*
X0290430Y0103721D01*
X0290285Y0103670D01*
X0290139Y0103623D01*
X0289992Y0103580D01*
X0289844Y0103541D01*
X0289695Y0103505D01*
X0289545Y0103474D01*
X0289394Y0103446D01*
X0289243Y0103422D01*
X0289090Y0103402D01*
X0288938Y0103386D01*
X0288785Y0103374D01*
X0288632Y0103366D01*
X0288479Y0103362D01*
X0288325Y0103362D01*
X0288172Y0103366D01*
X0288019Y0103374D01*
X0287866Y0103386D01*
X0287714Y0103402D01*
X0287561Y0103422D01*
X0287410Y0103446D01*
X0287259Y0103474D01*
X0287109Y0103505D01*
X0286960Y0103541D01*
X0286812Y0103580D01*
X0286665Y0103623D01*
X0286519Y0103670D01*
X0286374Y0103721D01*
X0286231Y0103776D01*
X0286089Y0103834D01*
X0285949Y0103896D01*
X0285810Y0103961D01*
X0285673Y0104030D01*
X0285538Y0104103D01*
X0285405Y0104179D01*
X0285274Y0104259D01*
X0285145Y0104341D01*
X0285018Y0104428D01*
X0284893Y0104517D01*
X0284771Y0104610D01*
X0284652Y0104706D01*
X0284534Y0104805D01*
X0284420Y0104906D01*
X0284308Y0105011D01*
X0284199Y0105119D01*
X0284093Y0105230D01*
X0283989Y0105343D01*
X0283889Y0105459D01*
X0283791Y0105577D01*
X0283697Y0105698D01*
X0283606Y0105821D01*
X0283518Y0105947D01*
X0283434Y0106075D01*
X0283352Y0106205D01*
X0283275Y0106337D01*
X0283200Y0106471D01*
X0283129Y0106607D01*
X0283062Y0106745D01*
X0282998Y0106885D01*
X0282938Y0107026D01*
X0282882Y0107168D01*
X0282829Y0107312D01*
X0282780Y0107458D01*
X0282735Y0107604D01*
X0282694Y0107752D01*
X0282657Y0107900D01*
X0282623Y0108050D01*
X0282593Y0108201D01*
X0282568Y0108352D01*
X0282546Y0108503D01*
X0282528Y0108656D01*
X0282514Y0108808D01*
X0282504Y0108961D01*
X0282498Y0109115D01*
X0282496Y0109268D01*
X0227377Y0109268D02*
X0227379Y0109421D01*
X0227385Y0109575D01*
X0227395Y0109728D01*
X0227409Y0109880D01*
X0227427Y0110033D01*
X0227449Y0110184D01*
X0227474Y0110335D01*
X0227504Y0110486D01*
X0227538Y0110636D01*
X0227575Y0110784D01*
X0227616Y0110932D01*
X0227661Y0111078D01*
X0227710Y0111224D01*
X0227763Y0111368D01*
X0227819Y0111510D01*
X0227879Y0111651D01*
X0227943Y0111791D01*
X0228010Y0111929D01*
X0228081Y0112065D01*
X0228156Y0112199D01*
X0228233Y0112331D01*
X0228315Y0112461D01*
X0228399Y0112589D01*
X0228487Y0112715D01*
X0228578Y0112838D01*
X0228672Y0112959D01*
X0228770Y0113077D01*
X0228870Y0113193D01*
X0228974Y0113306D01*
X0229080Y0113417D01*
X0229189Y0113525D01*
X0229301Y0113630D01*
X0229415Y0113731D01*
X0229533Y0113830D01*
X0229652Y0113926D01*
X0229774Y0114019D01*
X0229899Y0114108D01*
X0230026Y0114195D01*
X0230155Y0114277D01*
X0230286Y0114357D01*
X0230419Y0114433D01*
X0230554Y0114506D01*
X0230691Y0114575D01*
X0230830Y0114640D01*
X0230970Y0114702D01*
X0231112Y0114760D01*
X0231255Y0114815D01*
X0231400Y0114866D01*
X0231546Y0114913D01*
X0231693Y0114956D01*
X0231841Y0114995D01*
X0231990Y0115031D01*
X0232140Y0115062D01*
X0232291Y0115090D01*
X0232442Y0115114D01*
X0232595Y0115134D01*
X0232747Y0115150D01*
X0232900Y0115162D01*
X0233053Y0115170D01*
X0233206Y0115174D01*
X0233360Y0115174D01*
X0233513Y0115170D01*
X0233666Y0115162D01*
X0233819Y0115150D01*
X0233971Y0115134D01*
X0234124Y0115114D01*
X0234275Y0115090D01*
X0234426Y0115062D01*
X0234576Y0115031D01*
X0234725Y0114995D01*
X0234873Y0114956D01*
X0235020Y0114913D01*
X0235166Y0114866D01*
X0235311Y0114815D01*
X0235454Y0114760D01*
X0235596Y0114702D01*
X0235736Y0114640D01*
X0235875Y0114575D01*
X0236012Y0114506D01*
X0236147Y0114433D01*
X0236280Y0114357D01*
X0236411Y0114277D01*
X0236540Y0114195D01*
X0236667Y0114108D01*
X0236792Y0114019D01*
X0236914Y0113926D01*
X0237033Y0113830D01*
X0237151Y0113731D01*
X0237265Y0113630D01*
X0237377Y0113525D01*
X0237486Y0113417D01*
X0237592Y0113306D01*
X0237696Y0113193D01*
X0237796Y0113077D01*
X0237894Y0112959D01*
X0237988Y0112838D01*
X0238079Y0112715D01*
X0238167Y0112589D01*
X0238251Y0112461D01*
X0238333Y0112331D01*
X0238410Y0112199D01*
X0238485Y0112065D01*
X0238556Y0111929D01*
X0238623Y0111791D01*
X0238687Y0111651D01*
X0238747Y0111510D01*
X0238803Y0111368D01*
X0238856Y0111224D01*
X0238905Y0111078D01*
X0238950Y0110932D01*
X0238991Y0110784D01*
X0239028Y0110636D01*
X0239062Y0110486D01*
X0239092Y0110335D01*
X0239117Y0110184D01*
X0239139Y0110033D01*
X0239157Y0109880D01*
X0239171Y0109728D01*
X0239181Y0109575D01*
X0239187Y0109421D01*
X0239189Y0109268D01*
X0239187Y0109115D01*
X0239181Y0108961D01*
X0239171Y0108808D01*
X0239157Y0108656D01*
X0239139Y0108503D01*
X0239117Y0108352D01*
X0239092Y0108201D01*
X0239062Y0108050D01*
X0239028Y0107900D01*
X0238991Y0107752D01*
X0238950Y0107604D01*
X0238905Y0107458D01*
X0238856Y0107312D01*
X0238803Y0107168D01*
X0238747Y0107026D01*
X0238687Y0106885D01*
X0238623Y0106745D01*
X0238556Y0106607D01*
X0238485Y0106471D01*
X0238410Y0106337D01*
X0238333Y0106205D01*
X0238251Y0106075D01*
X0238167Y0105947D01*
X0238079Y0105821D01*
X0237988Y0105698D01*
X0237894Y0105577D01*
X0237796Y0105459D01*
X0237696Y0105343D01*
X0237592Y0105230D01*
X0237486Y0105119D01*
X0237377Y0105011D01*
X0237265Y0104906D01*
X0237151Y0104805D01*
X0237033Y0104706D01*
X0236914Y0104610D01*
X0236792Y0104517D01*
X0236667Y0104428D01*
X0236540Y0104341D01*
X0236411Y0104259D01*
X0236280Y0104179D01*
X0236147Y0104103D01*
X0236012Y0104030D01*
X0235875Y0103961D01*
X0235736Y0103896D01*
X0235596Y0103834D01*
X0235454Y0103776D01*
X0235311Y0103721D01*
X0235166Y0103670D01*
X0235020Y0103623D01*
X0234873Y0103580D01*
X0234725Y0103541D01*
X0234576Y0103505D01*
X0234426Y0103474D01*
X0234275Y0103446D01*
X0234124Y0103422D01*
X0233971Y0103402D01*
X0233819Y0103386D01*
X0233666Y0103374D01*
X0233513Y0103366D01*
X0233360Y0103362D01*
X0233206Y0103362D01*
X0233053Y0103366D01*
X0232900Y0103374D01*
X0232747Y0103386D01*
X0232595Y0103402D01*
X0232442Y0103422D01*
X0232291Y0103446D01*
X0232140Y0103474D01*
X0231990Y0103505D01*
X0231841Y0103541D01*
X0231693Y0103580D01*
X0231546Y0103623D01*
X0231400Y0103670D01*
X0231255Y0103721D01*
X0231112Y0103776D01*
X0230970Y0103834D01*
X0230830Y0103896D01*
X0230691Y0103961D01*
X0230554Y0104030D01*
X0230419Y0104103D01*
X0230286Y0104179D01*
X0230155Y0104259D01*
X0230026Y0104341D01*
X0229899Y0104428D01*
X0229774Y0104517D01*
X0229652Y0104610D01*
X0229533Y0104706D01*
X0229415Y0104805D01*
X0229301Y0104906D01*
X0229189Y0105011D01*
X0229080Y0105119D01*
X0228974Y0105230D01*
X0228870Y0105343D01*
X0228770Y0105459D01*
X0228672Y0105577D01*
X0228578Y0105698D01*
X0228487Y0105821D01*
X0228399Y0105947D01*
X0228315Y0106075D01*
X0228233Y0106205D01*
X0228156Y0106337D01*
X0228081Y0106471D01*
X0228010Y0106607D01*
X0227943Y0106745D01*
X0227879Y0106885D01*
X0227819Y0107026D01*
X0227763Y0107168D01*
X0227710Y0107312D01*
X0227661Y0107458D01*
X0227616Y0107604D01*
X0227575Y0107752D01*
X0227538Y0107900D01*
X0227504Y0108050D01*
X0227474Y0108201D01*
X0227449Y0108352D01*
X0227427Y0108503D01*
X0227409Y0108656D01*
X0227395Y0108808D01*
X0227385Y0108961D01*
X0227379Y0109115D01*
X0227377Y0109268D01*
X0171669Y0109150D02*
X0171671Y0109303D01*
X0171677Y0109457D01*
X0171687Y0109610D01*
X0171701Y0109762D01*
X0171719Y0109915D01*
X0171741Y0110066D01*
X0171766Y0110217D01*
X0171796Y0110368D01*
X0171830Y0110518D01*
X0171867Y0110666D01*
X0171908Y0110814D01*
X0171953Y0110960D01*
X0172002Y0111106D01*
X0172055Y0111250D01*
X0172111Y0111392D01*
X0172171Y0111533D01*
X0172235Y0111673D01*
X0172302Y0111811D01*
X0172373Y0111947D01*
X0172448Y0112081D01*
X0172525Y0112213D01*
X0172607Y0112343D01*
X0172691Y0112471D01*
X0172779Y0112597D01*
X0172870Y0112720D01*
X0172964Y0112841D01*
X0173062Y0112959D01*
X0173162Y0113075D01*
X0173266Y0113188D01*
X0173372Y0113299D01*
X0173481Y0113407D01*
X0173593Y0113512D01*
X0173707Y0113613D01*
X0173825Y0113712D01*
X0173944Y0113808D01*
X0174066Y0113901D01*
X0174191Y0113990D01*
X0174318Y0114077D01*
X0174447Y0114159D01*
X0174578Y0114239D01*
X0174711Y0114315D01*
X0174846Y0114388D01*
X0174983Y0114457D01*
X0175122Y0114522D01*
X0175262Y0114584D01*
X0175404Y0114642D01*
X0175547Y0114697D01*
X0175692Y0114748D01*
X0175838Y0114795D01*
X0175985Y0114838D01*
X0176133Y0114877D01*
X0176282Y0114913D01*
X0176432Y0114944D01*
X0176583Y0114972D01*
X0176734Y0114996D01*
X0176887Y0115016D01*
X0177039Y0115032D01*
X0177192Y0115044D01*
X0177345Y0115052D01*
X0177498Y0115056D01*
X0177652Y0115056D01*
X0177805Y0115052D01*
X0177958Y0115044D01*
X0178111Y0115032D01*
X0178263Y0115016D01*
X0178416Y0114996D01*
X0178567Y0114972D01*
X0178718Y0114944D01*
X0178868Y0114913D01*
X0179017Y0114877D01*
X0179165Y0114838D01*
X0179312Y0114795D01*
X0179458Y0114748D01*
X0179603Y0114697D01*
X0179746Y0114642D01*
X0179888Y0114584D01*
X0180028Y0114522D01*
X0180167Y0114457D01*
X0180304Y0114388D01*
X0180439Y0114315D01*
X0180572Y0114239D01*
X0180703Y0114159D01*
X0180832Y0114077D01*
X0180959Y0113990D01*
X0181084Y0113901D01*
X0181206Y0113808D01*
X0181325Y0113712D01*
X0181443Y0113613D01*
X0181557Y0113512D01*
X0181669Y0113407D01*
X0181778Y0113299D01*
X0181884Y0113188D01*
X0181988Y0113075D01*
X0182088Y0112959D01*
X0182186Y0112841D01*
X0182280Y0112720D01*
X0182371Y0112597D01*
X0182459Y0112471D01*
X0182543Y0112343D01*
X0182625Y0112213D01*
X0182702Y0112081D01*
X0182777Y0111947D01*
X0182848Y0111811D01*
X0182915Y0111673D01*
X0182979Y0111533D01*
X0183039Y0111392D01*
X0183095Y0111250D01*
X0183148Y0111106D01*
X0183197Y0110960D01*
X0183242Y0110814D01*
X0183283Y0110666D01*
X0183320Y0110518D01*
X0183354Y0110368D01*
X0183384Y0110217D01*
X0183409Y0110066D01*
X0183431Y0109915D01*
X0183449Y0109762D01*
X0183463Y0109610D01*
X0183473Y0109457D01*
X0183479Y0109303D01*
X0183481Y0109150D01*
X0183479Y0108997D01*
X0183473Y0108843D01*
X0183463Y0108690D01*
X0183449Y0108538D01*
X0183431Y0108385D01*
X0183409Y0108234D01*
X0183384Y0108083D01*
X0183354Y0107932D01*
X0183320Y0107782D01*
X0183283Y0107634D01*
X0183242Y0107486D01*
X0183197Y0107340D01*
X0183148Y0107194D01*
X0183095Y0107050D01*
X0183039Y0106908D01*
X0182979Y0106767D01*
X0182915Y0106627D01*
X0182848Y0106489D01*
X0182777Y0106353D01*
X0182702Y0106219D01*
X0182625Y0106087D01*
X0182543Y0105957D01*
X0182459Y0105829D01*
X0182371Y0105703D01*
X0182280Y0105580D01*
X0182186Y0105459D01*
X0182088Y0105341D01*
X0181988Y0105225D01*
X0181884Y0105112D01*
X0181778Y0105001D01*
X0181669Y0104893D01*
X0181557Y0104788D01*
X0181443Y0104687D01*
X0181325Y0104588D01*
X0181206Y0104492D01*
X0181084Y0104399D01*
X0180959Y0104310D01*
X0180832Y0104223D01*
X0180703Y0104141D01*
X0180572Y0104061D01*
X0180439Y0103985D01*
X0180304Y0103912D01*
X0180167Y0103843D01*
X0180028Y0103778D01*
X0179888Y0103716D01*
X0179746Y0103658D01*
X0179603Y0103603D01*
X0179458Y0103552D01*
X0179312Y0103505D01*
X0179165Y0103462D01*
X0179017Y0103423D01*
X0178868Y0103387D01*
X0178718Y0103356D01*
X0178567Y0103328D01*
X0178416Y0103304D01*
X0178263Y0103284D01*
X0178111Y0103268D01*
X0177958Y0103256D01*
X0177805Y0103248D01*
X0177652Y0103244D01*
X0177498Y0103244D01*
X0177345Y0103248D01*
X0177192Y0103256D01*
X0177039Y0103268D01*
X0176887Y0103284D01*
X0176734Y0103304D01*
X0176583Y0103328D01*
X0176432Y0103356D01*
X0176282Y0103387D01*
X0176133Y0103423D01*
X0175985Y0103462D01*
X0175838Y0103505D01*
X0175692Y0103552D01*
X0175547Y0103603D01*
X0175404Y0103658D01*
X0175262Y0103716D01*
X0175122Y0103778D01*
X0174983Y0103843D01*
X0174846Y0103912D01*
X0174711Y0103985D01*
X0174578Y0104061D01*
X0174447Y0104141D01*
X0174318Y0104223D01*
X0174191Y0104310D01*
X0174066Y0104399D01*
X0173944Y0104492D01*
X0173825Y0104588D01*
X0173707Y0104687D01*
X0173593Y0104788D01*
X0173481Y0104893D01*
X0173372Y0105001D01*
X0173266Y0105112D01*
X0173162Y0105225D01*
X0173062Y0105341D01*
X0172964Y0105459D01*
X0172870Y0105580D01*
X0172779Y0105703D01*
X0172691Y0105829D01*
X0172607Y0105957D01*
X0172525Y0106087D01*
X0172448Y0106219D01*
X0172373Y0106353D01*
X0172302Y0106489D01*
X0172235Y0106627D01*
X0172171Y0106767D01*
X0172111Y0106908D01*
X0172055Y0107050D01*
X0172002Y0107194D01*
X0171953Y0107340D01*
X0171908Y0107486D01*
X0171867Y0107634D01*
X0171830Y0107782D01*
X0171796Y0107932D01*
X0171766Y0108083D01*
X0171741Y0108234D01*
X0171719Y0108385D01*
X0171701Y0108538D01*
X0171687Y0108690D01*
X0171677Y0108843D01*
X0171671Y0108997D01*
X0171669Y0109150D01*
X0117141Y0109268D02*
X0117143Y0109421D01*
X0117149Y0109575D01*
X0117159Y0109728D01*
X0117173Y0109880D01*
X0117191Y0110033D01*
X0117213Y0110184D01*
X0117238Y0110335D01*
X0117268Y0110486D01*
X0117302Y0110636D01*
X0117339Y0110784D01*
X0117380Y0110932D01*
X0117425Y0111078D01*
X0117474Y0111224D01*
X0117527Y0111368D01*
X0117583Y0111510D01*
X0117643Y0111651D01*
X0117707Y0111791D01*
X0117774Y0111929D01*
X0117845Y0112065D01*
X0117920Y0112199D01*
X0117997Y0112331D01*
X0118079Y0112461D01*
X0118163Y0112589D01*
X0118251Y0112715D01*
X0118342Y0112838D01*
X0118436Y0112959D01*
X0118534Y0113077D01*
X0118634Y0113193D01*
X0118738Y0113306D01*
X0118844Y0113417D01*
X0118953Y0113525D01*
X0119065Y0113630D01*
X0119179Y0113731D01*
X0119297Y0113830D01*
X0119416Y0113926D01*
X0119538Y0114019D01*
X0119663Y0114108D01*
X0119790Y0114195D01*
X0119919Y0114277D01*
X0120050Y0114357D01*
X0120183Y0114433D01*
X0120318Y0114506D01*
X0120455Y0114575D01*
X0120594Y0114640D01*
X0120734Y0114702D01*
X0120876Y0114760D01*
X0121019Y0114815D01*
X0121164Y0114866D01*
X0121310Y0114913D01*
X0121457Y0114956D01*
X0121605Y0114995D01*
X0121754Y0115031D01*
X0121904Y0115062D01*
X0122055Y0115090D01*
X0122206Y0115114D01*
X0122359Y0115134D01*
X0122511Y0115150D01*
X0122664Y0115162D01*
X0122817Y0115170D01*
X0122970Y0115174D01*
X0123124Y0115174D01*
X0123277Y0115170D01*
X0123430Y0115162D01*
X0123583Y0115150D01*
X0123735Y0115134D01*
X0123888Y0115114D01*
X0124039Y0115090D01*
X0124190Y0115062D01*
X0124340Y0115031D01*
X0124489Y0114995D01*
X0124637Y0114956D01*
X0124784Y0114913D01*
X0124930Y0114866D01*
X0125075Y0114815D01*
X0125218Y0114760D01*
X0125360Y0114702D01*
X0125500Y0114640D01*
X0125639Y0114575D01*
X0125776Y0114506D01*
X0125911Y0114433D01*
X0126044Y0114357D01*
X0126175Y0114277D01*
X0126304Y0114195D01*
X0126431Y0114108D01*
X0126556Y0114019D01*
X0126678Y0113926D01*
X0126797Y0113830D01*
X0126915Y0113731D01*
X0127029Y0113630D01*
X0127141Y0113525D01*
X0127250Y0113417D01*
X0127356Y0113306D01*
X0127460Y0113193D01*
X0127560Y0113077D01*
X0127658Y0112959D01*
X0127752Y0112838D01*
X0127843Y0112715D01*
X0127931Y0112589D01*
X0128015Y0112461D01*
X0128097Y0112331D01*
X0128174Y0112199D01*
X0128249Y0112065D01*
X0128320Y0111929D01*
X0128387Y0111791D01*
X0128451Y0111651D01*
X0128511Y0111510D01*
X0128567Y0111368D01*
X0128620Y0111224D01*
X0128669Y0111078D01*
X0128714Y0110932D01*
X0128755Y0110784D01*
X0128792Y0110636D01*
X0128826Y0110486D01*
X0128856Y0110335D01*
X0128881Y0110184D01*
X0128903Y0110033D01*
X0128921Y0109880D01*
X0128935Y0109728D01*
X0128945Y0109575D01*
X0128951Y0109421D01*
X0128953Y0109268D01*
X0128951Y0109115D01*
X0128945Y0108961D01*
X0128935Y0108808D01*
X0128921Y0108656D01*
X0128903Y0108503D01*
X0128881Y0108352D01*
X0128856Y0108201D01*
X0128826Y0108050D01*
X0128792Y0107900D01*
X0128755Y0107752D01*
X0128714Y0107604D01*
X0128669Y0107458D01*
X0128620Y0107312D01*
X0128567Y0107168D01*
X0128511Y0107026D01*
X0128451Y0106885D01*
X0128387Y0106745D01*
X0128320Y0106607D01*
X0128249Y0106471D01*
X0128174Y0106337D01*
X0128097Y0106205D01*
X0128015Y0106075D01*
X0127931Y0105947D01*
X0127843Y0105821D01*
X0127752Y0105698D01*
X0127658Y0105577D01*
X0127560Y0105459D01*
X0127460Y0105343D01*
X0127356Y0105230D01*
X0127250Y0105119D01*
X0127141Y0105011D01*
X0127029Y0104906D01*
X0126915Y0104805D01*
X0126797Y0104706D01*
X0126678Y0104610D01*
X0126556Y0104517D01*
X0126431Y0104428D01*
X0126304Y0104341D01*
X0126175Y0104259D01*
X0126044Y0104179D01*
X0125911Y0104103D01*
X0125776Y0104030D01*
X0125639Y0103961D01*
X0125500Y0103896D01*
X0125360Y0103834D01*
X0125218Y0103776D01*
X0125075Y0103721D01*
X0124930Y0103670D01*
X0124784Y0103623D01*
X0124637Y0103580D01*
X0124489Y0103541D01*
X0124340Y0103505D01*
X0124190Y0103474D01*
X0124039Y0103446D01*
X0123888Y0103422D01*
X0123735Y0103402D01*
X0123583Y0103386D01*
X0123430Y0103374D01*
X0123277Y0103366D01*
X0123124Y0103362D01*
X0122970Y0103362D01*
X0122817Y0103366D01*
X0122664Y0103374D01*
X0122511Y0103386D01*
X0122359Y0103402D01*
X0122206Y0103422D01*
X0122055Y0103446D01*
X0121904Y0103474D01*
X0121754Y0103505D01*
X0121605Y0103541D01*
X0121457Y0103580D01*
X0121310Y0103623D01*
X0121164Y0103670D01*
X0121019Y0103721D01*
X0120876Y0103776D01*
X0120734Y0103834D01*
X0120594Y0103896D01*
X0120455Y0103961D01*
X0120318Y0104030D01*
X0120183Y0104103D01*
X0120050Y0104179D01*
X0119919Y0104259D01*
X0119790Y0104341D01*
X0119663Y0104428D01*
X0119538Y0104517D01*
X0119416Y0104610D01*
X0119297Y0104706D01*
X0119179Y0104805D01*
X0119065Y0104906D01*
X0118953Y0105011D01*
X0118844Y0105119D01*
X0118738Y0105230D01*
X0118634Y0105343D01*
X0118534Y0105459D01*
X0118436Y0105577D01*
X0118342Y0105698D01*
X0118251Y0105821D01*
X0118163Y0105947D01*
X0118079Y0106075D01*
X0117997Y0106205D01*
X0117920Y0106337D01*
X0117845Y0106471D01*
X0117774Y0106607D01*
X0117707Y0106745D01*
X0117643Y0106885D01*
X0117583Y0107026D01*
X0117527Y0107168D01*
X0117474Y0107312D01*
X0117425Y0107458D01*
X0117380Y0107604D01*
X0117339Y0107752D01*
X0117302Y0107900D01*
X0117268Y0108050D01*
X0117238Y0108201D01*
X0117213Y0108352D01*
X0117191Y0108503D01*
X0117173Y0108656D01*
X0117159Y0108808D01*
X0117149Y0108961D01*
X0117143Y0109115D01*
X0117141Y0109268D01*
X0062023Y0109268D02*
X0062025Y0109421D01*
X0062031Y0109575D01*
X0062041Y0109728D01*
X0062055Y0109880D01*
X0062073Y0110033D01*
X0062095Y0110184D01*
X0062120Y0110335D01*
X0062150Y0110486D01*
X0062184Y0110636D01*
X0062221Y0110784D01*
X0062262Y0110932D01*
X0062307Y0111078D01*
X0062356Y0111224D01*
X0062409Y0111368D01*
X0062465Y0111510D01*
X0062525Y0111651D01*
X0062589Y0111791D01*
X0062656Y0111929D01*
X0062727Y0112065D01*
X0062802Y0112199D01*
X0062879Y0112331D01*
X0062961Y0112461D01*
X0063045Y0112589D01*
X0063133Y0112715D01*
X0063224Y0112838D01*
X0063318Y0112959D01*
X0063416Y0113077D01*
X0063516Y0113193D01*
X0063620Y0113306D01*
X0063726Y0113417D01*
X0063835Y0113525D01*
X0063947Y0113630D01*
X0064061Y0113731D01*
X0064179Y0113830D01*
X0064298Y0113926D01*
X0064420Y0114019D01*
X0064545Y0114108D01*
X0064672Y0114195D01*
X0064801Y0114277D01*
X0064932Y0114357D01*
X0065065Y0114433D01*
X0065200Y0114506D01*
X0065337Y0114575D01*
X0065476Y0114640D01*
X0065616Y0114702D01*
X0065758Y0114760D01*
X0065901Y0114815D01*
X0066046Y0114866D01*
X0066192Y0114913D01*
X0066339Y0114956D01*
X0066487Y0114995D01*
X0066636Y0115031D01*
X0066786Y0115062D01*
X0066937Y0115090D01*
X0067088Y0115114D01*
X0067241Y0115134D01*
X0067393Y0115150D01*
X0067546Y0115162D01*
X0067699Y0115170D01*
X0067852Y0115174D01*
X0068006Y0115174D01*
X0068159Y0115170D01*
X0068312Y0115162D01*
X0068465Y0115150D01*
X0068617Y0115134D01*
X0068770Y0115114D01*
X0068921Y0115090D01*
X0069072Y0115062D01*
X0069222Y0115031D01*
X0069371Y0114995D01*
X0069519Y0114956D01*
X0069666Y0114913D01*
X0069812Y0114866D01*
X0069957Y0114815D01*
X0070100Y0114760D01*
X0070242Y0114702D01*
X0070382Y0114640D01*
X0070521Y0114575D01*
X0070658Y0114506D01*
X0070793Y0114433D01*
X0070926Y0114357D01*
X0071057Y0114277D01*
X0071186Y0114195D01*
X0071313Y0114108D01*
X0071438Y0114019D01*
X0071560Y0113926D01*
X0071679Y0113830D01*
X0071797Y0113731D01*
X0071911Y0113630D01*
X0072023Y0113525D01*
X0072132Y0113417D01*
X0072238Y0113306D01*
X0072342Y0113193D01*
X0072442Y0113077D01*
X0072540Y0112959D01*
X0072634Y0112838D01*
X0072725Y0112715D01*
X0072813Y0112589D01*
X0072897Y0112461D01*
X0072979Y0112331D01*
X0073056Y0112199D01*
X0073131Y0112065D01*
X0073202Y0111929D01*
X0073269Y0111791D01*
X0073333Y0111651D01*
X0073393Y0111510D01*
X0073449Y0111368D01*
X0073502Y0111224D01*
X0073551Y0111078D01*
X0073596Y0110932D01*
X0073637Y0110784D01*
X0073674Y0110636D01*
X0073708Y0110486D01*
X0073738Y0110335D01*
X0073763Y0110184D01*
X0073785Y0110033D01*
X0073803Y0109880D01*
X0073817Y0109728D01*
X0073827Y0109575D01*
X0073833Y0109421D01*
X0073835Y0109268D01*
X0073833Y0109115D01*
X0073827Y0108961D01*
X0073817Y0108808D01*
X0073803Y0108656D01*
X0073785Y0108503D01*
X0073763Y0108352D01*
X0073738Y0108201D01*
X0073708Y0108050D01*
X0073674Y0107900D01*
X0073637Y0107752D01*
X0073596Y0107604D01*
X0073551Y0107458D01*
X0073502Y0107312D01*
X0073449Y0107168D01*
X0073393Y0107026D01*
X0073333Y0106885D01*
X0073269Y0106745D01*
X0073202Y0106607D01*
X0073131Y0106471D01*
X0073056Y0106337D01*
X0072979Y0106205D01*
X0072897Y0106075D01*
X0072813Y0105947D01*
X0072725Y0105821D01*
X0072634Y0105698D01*
X0072540Y0105577D01*
X0072442Y0105459D01*
X0072342Y0105343D01*
X0072238Y0105230D01*
X0072132Y0105119D01*
X0072023Y0105011D01*
X0071911Y0104906D01*
X0071797Y0104805D01*
X0071679Y0104706D01*
X0071560Y0104610D01*
X0071438Y0104517D01*
X0071313Y0104428D01*
X0071186Y0104341D01*
X0071057Y0104259D01*
X0070926Y0104179D01*
X0070793Y0104103D01*
X0070658Y0104030D01*
X0070521Y0103961D01*
X0070382Y0103896D01*
X0070242Y0103834D01*
X0070100Y0103776D01*
X0069957Y0103721D01*
X0069812Y0103670D01*
X0069666Y0103623D01*
X0069519Y0103580D01*
X0069371Y0103541D01*
X0069222Y0103505D01*
X0069072Y0103474D01*
X0068921Y0103446D01*
X0068770Y0103422D01*
X0068617Y0103402D01*
X0068465Y0103386D01*
X0068312Y0103374D01*
X0068159Y0103366D01*
X0068006Y0103362D01*
X0067852Y0103362D01*
X0067699Y0103366D01*
X0067546Y0103374D01*
X0067393Y0103386D01*
X0067241Y0103402D01*
X0067088Y0103422D01*
X0066937Y0103446D01*
X0066786Y0103474D01*
X0066636Y0103505D01*
X0066487Y0103541D01*
X0066339Y0103580D01*
X0066192Y0103623D01*
X0066046Y0103670D01*
X0065901Y0103721D01*
X0065758Y0103776D01*
X0065616Y0103834D01*
X0065476Y0103896D01*
X0065337Y0103961D01*
X0065200Y0104030D01*
X0065065Y0104103D01*
X0064932Y0104179D01*
X0064801Y0104259D01*
X0064672Y0104341D01*
X0064545Y0104428D01*
X0064420Y0104517D01*
X0064298Y0104610D01*
X0064179Y0104706D01*
X0064061Y0104805D01*
X0063947Y0104906D01*
X0063835Y0105011D01*
X0063726Y0105119D01*
X0063620Y0105230D01*
X0063516Y0105343D01*
X0063416Y0105459D01*
X0063318Y0105577D01*
X0063224Y0105698D01*
X0063133Y0105821D01*
X0063045Y0105947D01*
X0062961Y0106075D01*
X0062879Y0106205D01*
X0062802Y0106337D01*
X0062727Y0106471D01*
X0062656Y0106607D01*
X0062589Y0106745D01*
X0062525Y0106885D01*
X0062465Y0107026D01*
X0062409Y0107168D01*
X0062356Y0107312D01*
X0062307Y0107458D01*
X0062262Y0107604D01*
X0062221Y0107752D01*
X0062184Y0107900D01*
X0062150Y0108050D01*
X0062120Y0108201D01*
X0062095Y0108352D01*
X0062073Y0108503D01*
X0062055Y0108656D01*
X0062041Y0108808D01*
X0062031Y0108961D01*
X0062025Y0109115D01*
X0062023Y0109268D01*
D11*
X0095488Y0119110D03*
X0150606Y0119110D03*
X0205724Y0119110D03*
X0260843Y0119110D03*
X0260843Y0020685D03*
X0205724Y0020685D03*
X0150606Y0020685D03*
X0095488Y0020685D03*
D12*
X0030528Y0060055D03*
X0030528Y0079740D03*
X0325803Y0079740D03*
X0325803Y0060055D03*
M02*
