G75*
%MOIN*%
%OFA0B0*%
%FSLAX25Y25*%
%IPPOS*%
%LPD*%
%AMOC8*
5,1,8,0,0,1.08239X$1,22.5*
%
%ADD10C,0.00000*%
%ADD11C,0.00600*%
D10*
X0024622Y0008874D02*
X0331709Y0008874D01*
X0332090Y0008879D01*
X0332470Y0008892D01*
X0332850Y0008915D01*
X0333229Y0008948D01*
X0333607Y0008989D01*
X0333984Y0009039D01*
X0334360Y0009099D01*
X0334735Y0009167D01*
X0335107Y0009245D01*
X0335478Y0009332D01*
X0335846Y0009427D01*
X0336212Y0009532D01*
X0336575Y0009645D01*
X0336936Y0009767D01*
X0337293Y0009897D01*
X0337647Y0010037D01*
X0337998Y0010184D01*
X0338345Y0010341D01*
X0338688Y0010505D01*
X0339027Y0010678D01*
X0339362Y0010859D01*
X0339693Y0011048D01*
X0340018Y0011245D01*
X0340339Y0011449D01*
X0340655Y0011662D01*
X0340965Y0011882D01*
X0341271Y0012109D01*
X0341570Y0012344D01*
X0341864Y0012586D01*
X0342152Y0012834D01*
X0342434Y0013090D01*
X0342709Y0013353D01*
X0342978Y0013622D01*
X0343241Y0013897D01*
X0343497Y0014179D01*
X0343745Y0014467D01*
X0343987Y0014761D01*
X0344222Y0015060D01*
X0344449Y0015366D01*
X0344669Y0015676D01*
X0344882Y0015992D01*
X0345086Y0016313D01*
X0345283Y0016638D01*
X0345472Y0016969D01*
X0345653Y0017304D01*
X0345826Y0017643D01*
X0345990Y0017986D01*
X0346147Y0018333D01*
X0346294Y0018684D01*
X0346434Y0019038D01*
X0346564Y0019395D01*
X0346686Y0019756D01*
X0346799Y0020119D01*
X0346904Y0020485D01*
X0346999Y0020853D01*
X0347086Y0021224D01*
X0347164Y0021596D01*
X0347232Y0021971D01*
X0347292Y0022347D01*
X0347342Y0022724D01*
X0347383Y0023102D01*
X0347416Y0023481D01*
X0347439Y0023861D01*
X0347452Y0024241D01*
X0347457Y0024622D01*
X0347457Y0115173D01*
X0347452Y0115554D01*
X0347439Y0115934D01*
X0347416Y0116314D01*
X0347383Y0116693D01*
X0347342Y0117071D01*
X0347292Y0117448D01*
X0347232Y0117824D01*
X0347164Y0118199D01*
X0347086Y0118571D01*
X0346999Y0118942D01*
X0346904Y0119310D01*
X0346799Y0119676D01*
X0346686Y0120039D01*
X0346564Y0120400D01*
X0346434Y0120757D01*
X0346294Y0121111D01*
X0346147Y0121462D01*
X0345990Y0121809D01*
X0345826Y0122152D01*
X0345653Y0122491D01*
X0345472Y0122826D01*
X0345283Y0123157D01*
X0345086Y0123482D01*
X0344882Y0123803D01*
X0344669Y0124119D01*
X0344449Y0124429D01*
X0344222Y0124735D01*
X0343987Y0125034D01*
X0343745Y0125328D01*
X0343497Y0125616D01*
X0343241Y0125898D01*
X0342978Y0126173D01*
X0342709Y0126442D01*
X0342434Y0126705D01*
X0342152Y0126961D01*
X0341864Y0127209D01*
X0341570Y0127451D01*
X0341271Y0127686D01*
X0340965Y0127913D01*
X0340655Y0128133D01*
X0340339Y0128346D01*
X0340018Y0128550D01*
X0339693Y0128747D01*
X0339362Y0128936D01*
X0339027Y0129117D01*
X0338688Y0129290D01*
X0338345Y0129454D01*
X0337998Y0129611D01*
X0337647Y0129758D01*
X0337293Y0129898D01*
X0336936Y0130028D01*
X0336575Y0130150D01*
X0336212Y0130263D01*
X0335846Y0130368D01*
X0335478Y0130463D01*
X0335107Y0130550D01*
X0334735Y0130628D01*
X0334360Y0130696D01*
X0333984Y0130756D01*
X0333607Y0130806D01*
X0333229Y0130847D01*
X0332850Y0130880D01*
X0332470Y0130903D01*
X0332090Y0130916D01*
X0331709Y0130921D01*
X0024622Y0130921D01*
X0024241Y0130916D01*
X0023861Y0130903D01*
X0023481Y0130880D01*
X0023102Y0130847D01*
X0022724Y0130806D01*
X0022347Y0130756D01*
X0021971Y0130696D01*
X0021596Y0130628D01*
X0021224Y0130550D01*
X0020853Y0130463D01*
X0020485Y0130368D01*
X0020119Y0130263D01*
X0019756Y0130150D01*
X0019395Y0130028D01*
X0019038Y0129898D01*
X0018684Y0129758D01*
X0018333Y0129611D01*
X0017986Y0129454D01*
X0017643Y0129290D01*
X0017304Y0129117D01*
X0016969Y0128936D01*
X0016638Y0128747D01*
X0016313Y0128550D01*
X0015992Y0128346D01*
X0015676Y0128133D01*
X0015366Y0127913D01*
X0015060Y0127686D01*
X0014761Y0127451D01*
X0014467Y0127209D01*
X0014179Y0126961D01*
X0013897Y0126705D01*
X0013622Y0126442D01*
X0013353Y0126173D01*
X0013090Y0125898D01*
X0012834Y0125616D01*
X0012586Y0125328D01*
X0012344Y0125034D01*
X0012109Y0124735D01*
X0011882Y0124429D01*
X0011662Y0124119D01*
X0011449Y0123803D01*
X0011245Y0123482D01*
X0011048Y0123157D01*
X0010859Y0122826D01*
X0010678Y0122491D01*
X0010505Y0122152D01*
X0010341Y0121809D01*
X0010184Y0121462D01*
X0010037Y0121111D01*
X0009897Y0120757D01*
X0009767Y0120400D01*
X0009645Y0120039D01*
X0009532Y0119676D01*
X0009427Y0119310D01*
X0009332Y0118942D01*
X0009245Y0118571D01*
X0009167Y0118199D01*
X0009099Y0117824D01*
X0009039Y0117448D01*
X0008989Y0117071D01*
X0008948Y0116693D01*
X0008915Y0116314D01*
X0008892Y0115934D01*
X0008879Y0115554D01*
X0008874Y0115173D01*
X0008874Y0024622D01*
X0008879Y0024241D01*
X0008892Y0023861D01*
X0008915Y0023481D01*
X0008948Y0023102D01*
X0008989Y0022724D01*
X0009039Y0022347D01*
X0009099Y0021971D01*
X0009167Y0021596D01*
X0009245Y0021224D01*
X0009332Y0020853D01*
X0009427Y0020485D01*
X0009532Y0020119D01*
X0009645Y0019756D01*
X0009767Y0019395D01*
X0009897Y0019038D01*
X0010037Y0018684D01*
X0010184Y0018333D01*
X0010341Y0017986D01*
X0010505Y0017643D01*
X0010678Y0017304D01*
X0010859Y0016969D01*
X0011048Y0016638D01*
X0011245Y0016313D01*
X0011449Y0015992D01*
X0011662Y0015676D01*
X0011882Y0015366D01*
X0012109Y0015060D01*
X0012344Y0014761D01*
X0012586Y0014467D01*
X0012834Y0014179D01*
X0013090Y0013897D01*
X0013353Y0013622D01*
X0013622Y0013353D01*
X0013897Y0013090D01*
X0014179Y0012834D01*
X0014467Y0012586D01*
X0014761Y0012344D01*
X0015060Y0012109D01*
X0015366Y0011882D01*
X0015676Y0011662D01*
X0015992Y0011449D01*
X0016313Y0011245D01*
X0016638Y0011048D01*
X0016969Y0010859D01*
X0017304Y0010678D01*
X0017643Y0010505D01*
X0017986Y0010341D01*
X0018333Y0010184D01*
X0018684Y0010037D01*
X0019038Y0009897D01*
X0019395Y0009767D01*
X0019756Y0009645D01*
X0020119Y0009532D01*
X0020485Y0009427D01*
X0020853Y0009332D01*
X0021224Y0009245D01*
X0021596Y0009167D01*
X0021971Y0009099D01*
X0022347Y0009039D01*
X0022724Y0008989D01*
X0023102Y0008948D01*
X0023481Y0008915D01*
X0023861Y0008892D01*
X0024241Y0008879D01*
X0024622Y0008874D01*
D11*
X0017929Y0024622D02*
X0017931Y0024786D01*
X0017937Y0024950D01*
X0017947Y0025114D01*
X0017961Y0025278D01*
X0017979Y0025441D01*
X0018001Y0025604D01*
X0018028Y0025766D01*
X0018058Y0025928D01*
X0018092Y0026088D01*
X0018130Y0026248D01*
X0018171Y0026407D01*
X0018217Y0026565D01*
X0018267Y0026721D01*
X0018320Y0026877D01*
X0018377Y0027031D01*
X0018438Y0027183D01*
X0018503Y0027334D01*
X0018572Y0027484D01*
X0018644Y0027631D01*
X0018719Y0027777D01*
X0018799Y0027921D01*
X0018881Y0028063D01*
X0018967Y0028203D01*
X0019057Y0028340D01*
X0019150Y0028476D01*
X0019246Y0028609D01*
X0019346Y0028740D01*
X0019448Y0028868D01*
X0019554Y0028994D01*
X0019663Y0029117D01*
X0019775Y0029237D01*
X0019889Y0029355D01*
X0020007Y0029469D01*
X0020127Y0029581D01*
X0020250Y0029690D01*
X0020376Y0029796D01*
X0020504Y0029898D01*
X0020635Y0029998D01*
X0020768Y0030094D01*
X0020904Y0030187D01*
X0021041Y0030277D01*
X0021181Y0030363D01*
X0021323Y0030445D01*
X0021467Y0030525D01*
X0021613Y0030600D01*
X0021760Y0030672D01*
X0021910Y0030741D01*
X0022061Y0030806D01*
X0022213Y0030867D01*
X0022367Y0030924D01*
X0022523Y0030977D01*
X0022679Y0031027D01*
X0022837Y0031073D01*
X0022996Y0031114D01*
X0023156Y0031152D01*
X0023316Y0031186D01*
X0023478Y0031216D01*
X0023640Y0031243D01*
X0023803Y0031265D01*
X0023966Y0031283D01*
X0024130Y0031297D01*
X0024294Y0031307D01*
X0024458Y0031313D01*
X0024622Y0031315D01*
X0024786Y0031313D01*
X0024950Y0031307D01*
X0025114Y0031297D01*
X0025278Y0031283D01*
X0025441Y0031265D01*
X0025604Y0031243D01*
X0025766Y0031216D01*
X0025928Y0031186D01*
X0026088Y0031152D01*
X0026248Y0031114D01*
X0026407Y0031073D01*
X0026565Y0031027D01*
X0026721Y0030977D01*
X0026877Y0030924D01*
X0027031Y0030867D01*
X0027183Y0030806D01*
X0027334Y0030741D01*
X0027484Y0030672D01*
X0027631Y0030600D01*
X0027777Y0030525D01*
X0027921Y0030445D01*
X0028063Y0030363D01*
X0028203Y0030277D01*
X0028340Y0030187D01*
X0028476Y0030094D01*
X0028609Y0029998D01*
X0028740Y0029898D01*
X0028868Y0029796D01*
X0028994Y0029690D01*
X0029117Y0029581D01*
X0029237Y0029469D01*
X0029355Y0029355D01*
X0029469Y0029237D01*
X0029581Y0029117D01*
X0029690Y0028994D01*
X0029796Y0028868D01*
X0029898Y0028740D01*
X0029998Y0028609D01*
X0030094Y0028476D01*
X0030187Y0028340D01*
X0030277Y0028203D01*
X0030363Y0028063D01*
X0030445Y0027921D01*
X0030525Y0027777D01*
X0030600Y0027631D01*
X0030672Y0027484D01*
X0030741Y0027334D01*
X0030806Y0027183D01*
X0030867Y0027031D01*
X0030924Y0026877D01*
X0030977Y0026721D01*
X0031027Y0026565D01*
X0031073Y0026407D01*
X0031114Y0026248D01*
X0031152Y0026088D01*
X0031186Y0025928D01*
X0031216Y0025766D01*
X0031243Y0025604D01*
X0031265Y0025441D01*
X0031283Y0025278D01*
X0031297Y0025114D01*
X0031307Y0024950D01*
X0031313Y0024786D01*
X0031315Y0024622D01*
X0031313Y0024458D01*
X0031307Y0024294D01*
X0031297Y0024130D01*
X0031283Y0023966D01*
X0031265Y0023803D01*
X0031243Y0023640D01*
X0031216Y0023478D01*
X0031186Y0023316D01*
X0031152Y0023156D01*
X0031114Y0022996D01*
X0031073Y0022837D01*
X0031027Y0022679D01*
X0030977Y0022523D01*
X0030924Y0022367D01*
X0030867Y0022213D01*
X0030806Y0022061D01*
X0030741Y0021910D01*
X0030672Y0021760D01*
X0030600Y0021613D01*
X0030525Y0021467D01*
X0030445Y0021323D01*
X0030363Y0021181D01*
X0030277Y0021041D01*
X0030187Y0020904D01*
X0030094Y0020768D01*
X0029998Y0020635D01*
X0029898Y0020504D01*
X0029796Y0020376D01*
X0029690Y0020250D01*
X0029581Y0020127D01*
X0029469Y0020007D01*
X0029355Y0019889D01*
X0029237Y0019775D01*
X0029117Y0019663D01*
X0028994Y0019554D01*
X0028868Y0019448D01*
X0028740Y0019346D01*
X0028609Y0019246D01*
X0028476Y0019150D01*
X0028340Y0019057D01*
X0028203Y0018967D01*
X0028063Y0018881D01*
X0027921Y0018799D01*
X0027777Y0018719D01*
X0027631Y0018644D01*
X0027484Y0018572D01*
X0027334Y0018503D01*
X0027183Y0018438D01*
X0027031Y0018377D01*
X0026877Y0018320D01*
X0026721Y0018267D01*
X0026565Y0018217D01*
X0026407Y0018171D01*
X0026248Y0018130D01*
X0026088Y0018092D01*
X0025928Y0018058D01*
X0025766Y0018028D01*
X0025604Y0018001D01*
X0025441Y0017979D01*
X0025278Y0017961D01*
X0025114Y0017947D01*
X0024950Y0017937D01*
X0024786Y0017931D01*
X0024622Y0017929D01*
X0024458Y0017931D01*
X0024294Y0017937D01*
X0024130Y0017947D01*
X0023966Y0017961D01*
X0023803Y0017979D01*
X0023640Y0018001D01*
X0023478Y0018028D01*
X0023316Y0018058D01*
X0023156Y0018092D01*
X0022996Y0018130D01*
X0022837Y0018171D01*
X0022679Y0018217D01*
X0022523Y0018267D01*
X0022367Y0018320D01*
X0022213Y0018377D01*
X0022061Y0018438D01*
X0021910Y0018503D01*
X0021760Y0018572D01*
X0021613Y0018644D01*
X0021467Y0018719D01*
X0021323Y0018799D01*
X0021181Y0018881D01*
X0021041Y0018967D01*
X0020904Y0019057D01*
X0020768Y0019150D01*
X0020635Y0019246D01*
X0020504Y0019346D01*
X0020376Y0019448D01*
X0020250Y0019554D01*
X0020127Y0019663D01*
X0020007Y0019775D01*
X0019889Y0019889D01*
X0019775Y0020007D01*
X0019663Y0020127D01*
X0019554Y0020250D01*
X0019448Y0020376D01*
X0019346Y0020504D01*
X0019246Y0020635D01*
X0019150Y0020768D01*
X0019057Y0020904D01*
X0018967Y0021041D01*
X0018881Y0021181D01*
X0018799Y0021323D01*
X0018719Y0021467D01*
X0018644Y0021613D01*
X0018572Y0021760D01*
X0018503Y0021910D01*
X0018438Y0022061D01*
X0018377Y0022213D01*
X0018320Y0022367D01*
X0018267Y0022523D01*
X0018217Y0022679D01*
X0018171Y0022837D01*
X0018130Y0022996D01*
X0018092Y0023156D01*
X0018058Y0023316D01*
X0018028Y0023478D01*
X0018001Y0023640D01*
X0017979Y0023803D01*
X0017961Y0023966D01*
X0017947Y0024130D01*
X0017937Y0024294D01*
X0017931Y0024458D01*
X0017929Y0024622D01*
X0011122Y0024622D02*
X0011126Y0024953D01*
X0011138Y0025284D01*
X0011159Y0025615D01*
X0011187Y0025945D01*
X0011224Y0026275D01*
X0011268Y0026603D01*
X0011321Y0026930D01*
X0011381Y0027256D01*
X0011450Y0027580D01*
X0011527Y0027902D01*
X0011611Y0028223D01*
X0011703Y0028541D01*
X0011803Y0028857D01*
X0011911Y0029170D01*
X0012027Y0029481D01*
X0012150Y0029788D01*
X0012280Y0030093D01*
X0012418Y0030394D01*
X0012563Y0030692D01*
X0012716Y0030986D01*
X0012876Y0031276D01*
X0013043Y0031562D01*
X0013216Y0031844D01*
X0013397Y0032122D01*
X0013585Y0032395D01*
X0013779Y0032664D01*
X0013979Y0032928D01*
X0014186Y0033186D01*
X0014400Y0033440D01*
X0014619Y0033688D01*
X0014845Y0033931D01*
X0015076Y0034168D01*
X0015313Y0034399D01*
X0015556Y0034625D01*
X0015804Y0034844D01*
X0016058Y0035058D01*
X0016316Y0035265D01*
X0016580Y0035465D01*
X0016849Y0035659D01*
X0017122Y0035847D01*
X0017400Y0036028D01*
X0017682Y0036201D01*
X0017968Y0036368D01*
X0018258Y0036528D01*
X0018552Y0036681D01*
X0018850Y0036826D01*
X0019151Y0036964D01*
X0019456Y0037094D01*
X0019763Y0037217D01*
X0020074Y0037333D01*
X0020387Y0037441D01*
X0020703Y0037541D01*
X0021021Y0037633D01*
X0021342Y0037717D01*
X0021664Y0037794D01*
X0021988Y0037863D01*
X0022314Y0037923D01*
X0022641Y0037976D01*
X0022969Y0038020D01*
X0023299Y0038057D01*
X0023629Y0038085D01*
X0023960Y0038106D01*
X0024291Y0038118D01*
X0024622Y0038122D01*
X0024953Y0038118D01*
X0025284Y0038106D01*
X0025615Y0038085D01*
X0025945Y0038057D01*
X0026275Y0038020D01*
X0026603Y0037976D01*
X0026930Y0037923D01*
X0027256Y0037863D01*
X0027580Y0037794D01*
X0027902Y0037717D01*
X0028223Y0037633D01*
X0028541Y0037541D01*
X0028857Y0037441D01*
X0029170Y0037333D01*
X0029481Y0037217D01*
X0029788Y0037094D01*
X0030093Y0036964D01*
X0030394Y0036826D01*
X0030692Y0036681D01*
X0030986Y0036528D01*
X0031276Y0036368D01*
X0031562Y0036201D01*
X0031844Y0036028D01*
X0032122Y0035847D01*
X0032395Y0035659D01*
X0032664Y0035465D01*
X0032928Y0035265D01*
X0033186Y0035058D01*
X0033440Y0034844D01*
X0033688Y0034625D01*
X0033931Y0034399D01*
X0034168Y0034168D01*
X0034399Y0033931D01*
X0034625Y0033688D01*
X0034844Y0033440D01*
X0035058Y0033186D01*
X0035265Y0032928D01*
X0035465Y0032664D01*
X0035659Y0032395D01*
X0035847Y0032122D01*
X0036028Y0031844D01*
X0036201Y0031562D01*
X0036368Y0031276D01*
X0036528Y0030986D01*
X0036681Y0030692D01*
X0036826Y0030394D01*
X0036964Y0030093D01*
X0037094Y0029788D01*
X0037217Y0029481D01*
X0037333Y0029170D01*
X0037441Y0028857D01*
X0037541Y0028541D01*
X0037633Y0028223D01*
X0037717Y0027902D01*
X0037794Y0027580D01*
X0037863Y0027256D01*
X0037923Y0026930D01*
X0037976Y0026603D01*
X0038020Y0026275D01*
X0038057Y0025945D01*
X0038085Y0025615D01*
X0038106Y0025284D01*
X0038118Y0024953D01*
X0038122Y0024622D01*
X0038118Y0024291D01*
X0038106Y0023960D01*
X0038085Y0023629D01*
X0038057Y0023299D01*
X0038020Y0022969D01*
X0037976Y0022641D01*
X0037923Y0022314D01*
X0037863Y0021988D01*
X0037794Y0021664D01*
X0037717Y0021342D01*
X0037633Y0021021D01*
X0037541Y0020703D01*
X0037441Y0020387D01*
X0037333Y0020074D01*
X0037217Y0019763D01*
X0037094Y0019456D01*
X0036964Y0019151D01*
X0036826Y0018850D01*
X0036681Y0018552D01*
X0036528Y0018258D01*
X0036368Y0017968D01*
X0036201Y0017682D01*
X0036028Y0017400D01*
X0035847Y0017122D01*
X0035659Y0016849D01*
X0035465Y0016580D01*
X0035265Y0016316D01*
X0035058Y0016058D01*
X0034844Y0015804D01*
X0034625Y0015556D01*
X0034399Y0015313D01*
X0034168Y0015076D01*
X0033931Y0014845D01*
X0033688Y0014619D01*
X0033440Y0014400D01*
X0033186Y0014186D01*
X0032928Y0013979D01*
X0032664Y0013779D01*
X0032395Y0013585D01*
X0032122Y0013397D01*
X0031844Y0013216D01*
X0031562Y0013043D01*
X0031276Y0012876D01*
X0030986Y0012716D01*
X0030692Y0012563D01*
X0030394Y0012418D01*
X0030093Y0012280D01*
X0029788Y0012150D01*
X0029481Y0012027D01*
X0029170Y0011911D01*
X0028857Y0011803D01*
X0028541Y0011703D01*
X0028223Y0011611D01*
X0027902Y0011527D01*
X0027580Y0011450D01*
X0027256Y0011381D01*
X0026930Y0011321D01*
X0026603Y0011268D01*
X0026275Y0011224D01*
X0025945Y0011187D01*
X0025615Y0011159D01*
X0025284Y0011138D01*
X0024953Y0011126D01*
X0024622Y0011122D01*
X0024291Y0011126D01*
X0023960Y0011138D01*
X0023629Y0011159D01*
X0023299Y0011187D01*
X0022969Y0011224D01*
X0022641Y0011268D01*
X0022314Y0011321D01*
X0021988Y0011381D01*
X0021664Y0011450D01*
X0021342Y0011527D01*
X0021021Y0011611D01*
X0020703Y0011703D01*
X0020387Y0011803D01*
X0020074Y0011911D01*
X0019763Y0012027D01*
X0019456Y0012150D01*
X0019151Y0012280D01*
X0018850Y0012418D01*
X0018552Y0012563D01*
X0018258Y0012716D01*
X0017968Y0012876D01*
X0017682Y0013043D01*
X0017400Y0013216D01*
X0017122Y0013397D01*
X0016849Y0013585D01*
X0016580Y0013779D01*
X0016316Y0013979D01*
X0016058Y0014186D01*
X0015804Y0014400D01*
X0015556Y0014619D01*
X0015313Y0014845D01*
X0015076Y0015076D01*
X0014845Y0015313D01*
X0014619Y0015556D01*
X0014400Y0015804D01*
X0014186Y0016058D01*
X0013979Y0016316D01*
X0013779Y0016580D01*
X0013585Y0016849D01*
X0013397Y0017122D01*
X0013216Y0017400D01*
X0013043Y0017682D01*
X0012876Y0017968D01*
X0012716Y0018258D01*
X0012563Y0018552D01*
X0012418Y0018850D01*
X0012280Y0019151D01*
X0012150Y0019456D01*
X0012027Y0019763D01*
X0011911Y0020074D01*
X0011803Y0020387D01*
X0011703Y0020703D01*
X0011611Y0021021D01*
X0011527Y0021342D01*
X0011450Y0021664D01*
X0011381Y0021988D01*
X0011321Y0022314D01*
X0011268Y0022641D01*
X0011224Y0022969D01*
X0011187Y0023299D01*
X0011159Y0023629D01*
X0011138Y0023960D01*
X0011126Y0024291D01*
X0011122Y0024622D01*
X0017929Y0115173D02*
X0017931Y0115337D01*
X0017937Y0115501D01*
X0017947Y0115665D01*
X0017961Y0115829D01*
X0017979Y0115992D01*
X0018001Y0116155D01*
X0018028Y0116317D01*
X0018058Y0116479D01*
X0018092Y0116639D01*
X0018130Y0116799D01*
X0018171Y0116958D01*
X0018217Y0117116D01*
X0018267Y0117272D01*
X0018320Y0117428D01*
X0018377Y0117582D01*
X0018438Y0117734D01*
X0018503Y0117885D01*
X0018572Y0118035D01*
X0018644Y0118182D01*
X0018719Y0118328D01*
X0018799Y0118472D01*
X0018881Y0118614D01*
X0018967Y0118754D01*
X0019057Y0118891D01*
X0019150Y0119027D01*
X0019246Y0119160D01*
X0019346Y0119291D01*
X0019448Y0119419D01*
X0019554Y0119545D01*
X0019663Y0119668D01*
X0019775Y0119788D01*
X0019889Y0119906D01*
X0020007Y0120020D01*
X0020127Y0120132D01*
X0020250Y0120241D01*
X0020376Y0120347D01*
X0020504Y0120449D01*
X0020635Y0120549D01*
X0020768Y0120645D01*
X0020904Y0120738D01*
X0021041Y0120828D01*
X0021181Y0120914D01*
X0021323Y0120996D01*
X0021467Y0121076D01*
X0021613Y0121151D01*
X0021760Y0121223D01*
X0021910Y0121292D01*
X0022061Y0121357D01*
X0022213Y0121418D01*
X0022367Y0121475D01*
X0022523Y0121528D01*
X0022679Y0121578D01*
X0022837Y0121624D01*
X0022996Y0121665D01*
X0023156Y0121703D01*
X0023316Y0121737D01*
X0023478Y0121767D01*
X0023640Y0121794D01*
X0023803Y0121816D01*
X0023966Y0121834D01*
X0024130Y0121848D01*
X0024294Y0121858D01*
X0024458Y0121864D01*
X0024622Y0121866D01*
X0024786Y0121864D01*
X0024950Y0121858D01*
X0025114Y0121848D01*
X0025278Y0121834D01*
X0025441Y0121816D01*
X0025604Y0121794D01*
X0025766Y0121767D01*
X0025928Y0121737D01*
X0026088Y0121703D01*
X0026248Y0121665D01*
X0026407Y0121624D01*
X0026565Y0121578D01*
X0026721Y0121528D01*
X0026877Y0121475D01*
X0027031Y0121418D01*
X0027183Y0121357D01*
X0027334Y0121292D01*
X0027484Y0121223D01*
X0027631Y0121151D01*
X0027777Y0121076D01*
X0027921Y0120996D01*
X0028063Y0120914D01*
X0028203Y0120828D01*
X0028340Y0120738D01*
X0028476Y0120645D01*
X0028609Y0120549D01*
X0028740Y0120449D01*
X0028868Y0120347D01*
X0028994Y0120241D01*
X0029117Y0120132D01*
X0029237Y0120020D01*
X0029355Y0119906D01*
X0029469Y0119788D01*
X0029581Y0119668D01*
X0029690Y0119545D01*
X0029796Y0119419D01*
X0029898Y0119291D01*
X0029998Y0119160D01*
X0030094Y0119027D01*
X0030187Y0118891D01*
X0030277Y0118754D01*
X0030363Y0118614D01*
X0030445Y0118472D01*
X0030525Y0118328D01*
X0030600Y0118182D01*
X0030672Y0118035D01*
X0030741Y0117885D01*
X0030806Y0117734D01*
X0030867Y0117582D01*
X0030924Y0117428D01*
X0030977Y0117272D01*
X0031027Y0117116D01*
X0031073Y0116958D01*
X0031114Y0116799D01*
X0031152Y0116639D01*
X0031186Y0116479D01*
X0031216Y0116317D01*
X0031243Y0116155D01*
X0031265Y0115992D01*
X0031283Y0115829D01*
X0031297Y0115665D01*
X0031307Y0115501D01*
X0031313Y0115337D01*
X0031315Y0115173D01*
X0031313Y0115009D01*
X0031307Y0114845D01*
X0031297Y0114681D01*
X0031283Y0114517D01*
X0031265Y0114354D01*
X0031243Y0114191D01*
X0031216Y0114029D01*
X0031186Y0113867D01*
X0031152Y0113707D01*
X0031114Y0113547D01*
X0031073Y0113388D01*
X0031027Y0113230D01*
X0030977Y0113074D01*
X0030924Y0112918D01*
X0030867Y0112764D01*
X0030806Y0112612D01*
X0030741Y0112461D01*
X0030672Y0112311D01*
X0030600Y0112164D01*
X0030525Y0112018D01*
X0030445Y0111874D01*
X0030363Y0111732D01*
X0030277Y0111592D01*
X0030187Y0111455D01*
X0030094Y0111319D01*
X0029998Y0111186D01*
X0029898Y0111055D01*
X0029796Y0110927D01*
X0029690Y0110801D01*
X0029581Y0110678D01*
X0029469Y0110558D01*
X0029355Y0110440D01*
X0029237Y0110326D01*
X0029117Y0110214D01*
X0028994Y0110105D01*
X0028868Y0109999D01*
X0028740Y0109897D01*
X0028609Y0109797D01*
X0028476Y0109701D01*
X0028340Y0109608D01*
X0028203Y0109518D01*
X0028063Y0109432D01*
X0027921Y0109350D01*
X0027777Y0109270D01*
X0027631Y0109195D01*
X0027484Y0109123D01*
X0027334Y0109054D01*
X0027183Y0108989D01*
X0027031Y0108928D01*
X0026877Y0108871D01*
X0026721Y0108818D01*
X0026565Y0108768D01*
X0026407Y0108722D01*
X0026248Y0108681D01*
X0026088Y0108643D01*
X0025928Y0108609D01*
X0025766Y0108579D01*
X0025604Y0108552D01*
X0025441Y0108530D01*
X0025278Y0108512D01*
X0025114Y0108498D01*
X0024950Y0108488D01*
X0024786Y0108482D01*
X0024622Y0108480D01*
X0024458Y0108482D01*
X0024294Y0108488D01*
X0024130Y0108498D01*
X0023966Y0108512D01*
X0023803Y0108530D01*
X0023640Y0108552D01*
X0023478Y0108579D01*
X0023316Y0108609D01*
X0023156Y0108643D01*
X0022996Y0108681D01*
X0022837Y0108722D01*
X0022679Y0108768D01*
X0022523Y0108818D01*
X0022367Y0108871D01*
X0022213Y0108928D01*
X0022061Y0108989D01*
X0021910Y0109054D01*
X0021760Y0109123D01*
X0021613Y0109195D01*
X0021467Y0109270D01*
X0021323Y0109350D01*
X0021181Y0109432D01*
X0021041Y0109518D01*
X0020904Y0109608D01*
X0020768Y0109701D01*
X0020635Y0109797D01*
X0020504Y0109897D01*
X0020376Y0109999D01*
X0020250Y0110105D01*
X0020127Y0110214D01*
X0020007Y0110326D01*
X0019889Y0110440D01*
X0019775Y0110558D01*
X0019663Y0110678D01*
X0019554Y0110801D01*
X0019448Y0110927D01*
X0019346Y0111055D01*
X0019246Y0111186D01*
X0019150Y0111319D01*
X0019057Y0111455D01*
X0018967Y0111592D01*
X0018881Y0111732D01*
X0018799Y0111874D01*
X0018719Y0112018D01*
X0018644Y0112164D01*
X0018572Y0112311D01*
X0018503Y0112461D01*
X0018438Y0112612D01*
X0018377Y0112764D01*
X0018320Y0112918D01*
X0018267Y0113074D01*
X0018217Y0113230D01*
X0018171Y0113388D01*
X0018130Y0113547D01*
X0018092Y0113707D01*
X0018058Y0113867D01*
X0018028Y0114029D01*
X0018001Y0114191D01*
X0017979Y0114354D01*
X0017961Y0114517D01*
X0017947Y0114681D01*
X0017937Y0114845D01*
X0017931Y0115009D01*
X0017929Y0115173D01*
X0011122Y0115173D02*
X0011126Y0115504D01*
X0011138Y0115835D01*
X0011159Y0116166D01*
X0011187Y0116496D01*
X0011224Y0116826D01*
X0011268Y0117154D01*
X0011321Y0117481D01*
X0011381Y0117807D01*
X0011450Y0118131D01*
X0011527Y0118453D01*
X0011611Y0118774D01*
X0011703Y0119092D01*
X0011803Y0119408D01*
X0011911Y0119721D01*
X0012027Y0120032D01*
X0012150Y0120339D01*
X0012280Y0120644D01*
X0012418Y0120945D01*
X0012563Y0121243D01*
X0012716Y0121537D01*
X0012876Y0121827D01*
X0013043Y0122113D01*
X0013216Y0122395D01*
X0013397Y0122673D01*
X0013585Y0122946D01*
X0013779Y0123215D01*
X0013979Y0123479D01*
X0014186Y0123737D01*
X0014400Y0123991D01*
X0014619Y0124239D01*
X0014845Y0124482D01*
X0015076Y0124719D01*
X0015313Y0124950D01*
X0015556Y0125176D01*
X0015804Y0125395D01*
X0016058Y0125609D01*
X0016316Y0125816D01*
X0016580Y0126016D01*
X0016849Y0126210D01*
X0017122Y0126398D01*
X0017400Y0126579D01*
X0017682Y0126752D01*
X0017968Y0126919D01*
X0018258Y0127079D01*
X0018552Y0127232D01*
X0018850Y0127377D01*
X0019151Y0127515D01*
X0019456Y0127645D01*
X0019763Y0127768D01*
X0020074Y0127884D01*
X0020387Y0127992D01*
X0020703Y0128092D01*
X0021021Y0128184D01*
X0021342Y0128268D01*
X0021664Y0128345D01*
X0021988Y0128414D01*
X0022314Y0128474D01*
X0022641Y0128527D01*
X0022969Y0128571D01*
X0023299Y0128608D01*
X0023629Y0128636D01*
X0023960Y0128657D01*
X0024291Y0128669D01*
X0024622Y0128673D01*
X0024953Y0128669D01*
X0025284Y0128657D01*
X0025615Y0128636D01*
X0025945Y0128608D01*
X0026275Y0128571D01*
X0026603Y0128527D01*
X0026930Y0128474D01*
X0027256Y0128414D01*
X0027580Y0128345D01*
X0027902Y0128268D01*
X0028223Y0128184D01*
X0028541Y0128092D01*
X0028857Y0127992D01*
X0029170Y0127884D01*
X0029481Y0127768D01*
X0029788Y0127645D01*
X0030093Y0127515D01*
X0030394Y0127377D01*
X0030692Y0127232D01*
X0030986Y0127079D01*
X0031276Y0126919D01*
X0031562Y0126752D01*
X0031844Y0126579D01*
X0032122Y0126398D01*
X0032395Y0126210D01*
X0032664Y0126016D01*
X0032928Y0125816D01*
X0033186Y0125609D01*
X0033440Y0125395D01*
X0033688Y0125176D01*
X0033931Y0124950D01*
X0034168Y0124719D01*
X0034399Y0124482D01*
X0034625Y0124239D01*
X0034844Y0123991D01*
X0035058Y0123737D01*
X0035265Y0123479D01*
X0035465Y0123215D01*
X0035659Y0122946D01*
X0035847Y0122673D01*
X0036028Y0122395D01*
X0036201Y0122113D01*
X0036368Y0121827D01*
X0036528Y0121537D01*
X0036681Y0121243D01*
X0036826Y0120945D01*
X0036964Y0120644D01*
X0037094Y0120339D01*
X0037217Y0120032D01*
X0037333Y0119721D01*
X0037441Y0119408D01*
X0037541Y0119092D01*
X0037633Y0118774D01*
X0037717Y0118453D01*
X0037794Y0118131D01*
X0037863Y0117807D01*
X0037923Y0117481D01*
X0037976Y0117154D01*
X0038020Y0116826D01*
X0038057Y0116496D01*
X0038085Y0116166D01*
X0038106Y0115835D01*
X0038118Y0115504D01*
X0038122Y0115173D01*
X0038118Y0114842D01*
X0038106Y0114511D01*
X0038085Y0114180D01*
X0038057Y0113850D01*
X0038020Y0113520D01*
X0037976Y0113192D01*
X0037923Y0112865D01*
X0037863Y0112539D01*
X0037794Y0112215D01*
X0037717Y0111893D01*
X0037633Y0111572D01*
X0037541Y0111254D01*
X0037441Y0110938D01*
X0037333Y0110625D01*
X0037217Y0110314D01*
X0037094Y0110007D01*
X0036964Y0109702D01*
X0036826Y0109401D01*
X0036681Y0109103D01*
X0036528Y0108809D01*
X0036368Y0108519D01*
X0036201Y0108233D01*
X0036028Y0107951D01*
X0035847Y0107673D01*
X0035659Y0107400D01*
X0035465Y0107131D01*
X0035265Y0106867D01*
X0035058Y0106609D01*
X0034844Y0106355D01*
X0034625Y0106107D01*
X0034399Y0105864D01*
X0034168Y0105627D01*
X0033931Y0105396D01*
X0033688Y0105170D01*
X0033440Y0104951D01*
X0033186Y0104737D01*
X0032928Y0104530D01*
X0032664Y0104330D01*
X0032395Y0104136D01*
X0032122Y0103948D01*
X0031844Y0103767D01*
X0031562Y0103594D01*
X0031276Y0103427D01*
X0030986Y0103267D01*
X0030692Y0103114D01*
X0030394Y0102969D01*
X0030093Y0102831D01*
X0029788Y0102701D01*
X0029481Y0102578D01*
X0029170Y0102462D01*
X0028857Y0102354D01*
X0028541Y0102254D01*
X0028223Y0102162D01*
X0027902Y0102078D01*
X0027580Y0102001D01*
X0027256Y0101932D01*
X0026930Y0101872D01*
X0026603Y0101819D01*
X0026275Y0101775D01*
X0025945Y0101738D01*
X0025615Y0101710D01*
X0025284Y0101689D01*
X0024953Y0101677D01*
X0024622Y0101673D01*
X0024291Y0101677D01*
X0023960Y0101689D01*
X0023629Y0101710D01*
X0023299Y0101738D01*
X0022969Y0101775D01*
X0022641Y0101819D01*
X0022314Y0101872D01*
X0021988Y0101932D01*
X0021664Y0102001D01*
X0021342Y0102078D01*
X0021021Y0102162D01*
X0020703Y0102254D01*
X0020387Y0102354D01*
X0020074Y0102462D01*
X0019763Y0102578D01*
X0019456Y0102701D01*
X0019151Y0102831D01*
X0018850Y0102969D01*
X0018552Y0103114D01*
X0018258Y0103267D01*
X0017968Y0103427D01*
X0017682Y0103594D01*
X0017400Y0103767D01*
X0017122Y0103948D01*
X0016849Y0104136D01*
X0016580Y0104330D01*
X0016316Y0104530D01*
X0016058Y0104737D01*
X0015804Y0104951D01*
X0015556Y0105170D01*
X0015313Y0105396D01*
X0015076Y0105627D01*
X0014845Y0105864D01*
X0014619Y0106107D01*
X0014400Y0106355D01*
X0014186Y0106609D01*
X0013979Y0106867D01*
X0013779Y0107131D01*
X0013585Y0107400D01*
X0013397Y0107673D01*
X0013216Y0107951D01*
X0013043Y0108233D01*
X0012876Y0108519D01*
X0012716Y0108809D01*
X0012563Y0109103D01*
X0012418Y0109401D01*
X0012280Y0109702D01*
X0012150Y0110007D01*
X0012027Y0110314D01*
X0011911Y0110625D01*
X0011803Y0110938D01*
X0011703Y0111254D01*
X0011611Y0111572D01*
X0011527Y0111893D01*
X0011450Y0112215D01*
X0011381Y0112539D01*
X0011321Y0112865D01*
X0011268Y0113192D01*
X0011224Y0113520D01*
X0011187Y0113850D01*
X0011159Y0114180D01*
X0011138Y0114511D01*
X0011126Y0114842D01*
X0011122Y0115173D01*
X0325016Y0115173D02*
X0325018Y0115337D01*
X0325024Y0115501D01*
X0325034Y0115665D01*
X0325048Y0115829D01*
X0325066Y0115992D01*
X0325088Y0116155D01*
X0325115Y0116317D01*
X0325145Y0116479D01*
X0325179Y0116639D01*
X0325217Y0116799D01*
X0325258Y0116958D01*
X0325304Y0117116D01*
X0325354Y0117272D01*
X0325407Y0117428D01*
X0325464Y0117582D01*
X0325525Y0117734D01*
X0325590Y0117885D01*
X0325659Y0118035D01*
X0325731Y0118182D01*
X0325806Y0118328D01*
X0325886Y0118472D01*
X0325968Y0118614D01*
X0326054Y0118754D01*
X0326144Y0118891D01*
X0326237Y0119027D01*
X0326333Y0119160D01*
X0326433Y0119291D01*
X0326535Y0119419D01*
X0326641Y0119545D01*
X0326750Y0119668D01*
X0326862Y0119788D01*
X0326976Y0119906D01*
X0327094Y0120020D01*
X0327214Y0120132D01*
X0327337Y0120241D01*
X0327463Y0120347D01*
X0327591Y0120449D01*
X0327722Y0120549D01*
X0327855Y0120645D01*
X0327991Y0120738D01*
X0328128Y0120828D01*
X0328268Y0120914D01*
X0328410Y0120996D01*
X0328554Y0121076D01*
X0328700Y0121151D01*
X0328847Y0121223D01*
X0328997Y0121292D01*
X0329148Y0121357D01*
X0329300Y0121418D01*
X0329454Y0121475D01*
X0329610Y0121528D01*
X0329766Y0121578D01*
X0329924Y0121624D01*
X0330083Y0121665D01*
X0330243Y0121703D01*
X0330403Y0121737D01*
X0330565Y0121767D01*
X0330727Y0121794D01*
X0330890Y0121816D01*
X0331053Y0121834D01*
X0331217Y0121848D01*
X0331381Y0121858D01*
X0331545Y0121864D01*
X0331709Y0121866D01*
X0331873Y0121864D01*
X0332037Y0121858D01*
X0332201Y0121848D01*
X0332365Y0121834D01*
X0332528Y0121816D01*
X0332691Y0121794D01*
X0332853Y0121767D01*
X0333015Y0121737D01*
X0333175Y0121703D01*
X0333335Y0121665D01*
X0333494Y0121624D01*
X0333652Y0121578D01*
X0333808Y0121528D01*
X0333964Y0121475D01*
X0334118Y0121418D01*
X0334270Y0121357D01*
X0334421Y0121292D01*
X0334571Y0121223D01*
X0334718Y0121151D01*
X0334864Y0121076D01*
X0335008Y0120996D01*
X0335150Y0120914D01*
X0335290Y0120828D01*
X0335427Y0120738D01*
X0335563Y0120645D01*
X0335696Y0120549D01*
X0335827Y0120449D01*
X0335955Y0120347D01*
X0336081Y0120241D01*
X0336204Y0120132D01*
X0336324Y0120020D01*
X0336442Y0119906D01*
X0336556Y0119788D01*
X0336668Y0119668D01*
X0336777Y0119545D01*
X0336883Y0119419D01*
X0336985Y0119291D01*
X0337085Y0119160D01*
X0337181Y0119027D01*
X0337274Y0118891D01*
X0337364Y0118754D01*
X0337450Y0118614D01*
X0337532Y0118472D01*
X0337612Y0118328D01*
X0337687Y0118182D01*
X0337759Y0118035D01*
X0337828Y0117885D01*
X0337893Y0117734D01*
X0337954Y0117582D01*
X0338011Y0117428D01*
X0338064Y0117272D01*
X0338114Y0117116D01*
X0338160Y0116958D01*
X0338201Y0116799D01*
X0338239Y0116639D01*
X0338273Y0116479D01*
X0338303Y0116317D01*
X0338330Y0116155D01*
X0338352Y0115992D01*
X0338370Y0115829D01*
X0338384Y0115665D01*
X0338394Y0115501D01*
X0338400Y0115337D01*
X0338402Y0115173D01*
X0338400Y0115009D01*
X0338394Y0114845D01*
X0338384Y0114681D01*
X0338370Y0114517D01*
X0338352Y0114354D01*
X0338330Y0114191D01*
X0338303Y0114029D01*
X0338273Y0113867D01*
X0338239Y0113707D01*
X0338201Y0113547D01*
X0338160Y0113388D01*
X0338114Y0113230D01*
X0338064Y0113074D01*
X0338011Y0112918D01*
X0337954Y0112764D01*
X0337893Y0112612D01*
X0337828Y0112461D01*
X0337759Y0112311D01*
X0337687Y0112164D01*
X0337612Y0112018D01*
X0337532Y0111874D01*
X0337450Y0111732D01*
X0337364Y0111592D01*
X0337274Y0111455D01*
X0337181Y0111319D01*
X0337085Y0111186D01*
X0336985Y0111055D01*
X0336883Y0110927D01*
X0336777Y0110801D01*
X0336668Y0110678D01*
X0336556Y0110558D01*
X0336442Y0110440D01*
X0336324Y0110326D01*
X0336204Y0110214D01*
X0336081Y0110105D01*
X0335955Y0109999D01*
X0335827Y0109897D01*
X0335696Y0109797D01*
X0335563Y0109701D01*
X0335427Y0109608D01*
X0335290Y0109518D01*
X0335150Y0109432D01*
X0335008Y0109350D01*
X0334864Y0109270D01*
X0334718Y0109195D01*
X0334571Y0109123D01*
X0334421Y0109054D01*
X0334270Y0108989D01*
X0334118Y0108928D01*
X0333964Y0108871D01*
X0333808Y0108818D01*
X0333652Y0108768D01*
X0333494Y0108722D01*
X0333335Y0108681D01*
X0333175Y0108643D01*
X0333015Y0108609D01*
X0332853Y0108579D01*
X0332691Y0108552D01*
X0332528Y0108530D01*
X0332365Y0108512D01*
X0332201Y0108498D01*
X0332037Y0108488D01*
X0331873Y0108482D01*
X0331709Y0108480D01*
X0331545Y0108482D01*
X0331381Y0108488D01*
X0331217Y0108498D01*
X0331053Y0108512D01*
X0330890Y0108530D01*
X0330727Y0108552D01*
X0330565Y0108579D01*
X0330403Y0108609D01*
X0330243Y0108643D01*
X0330083Y0108681D01*
X0329924Y0108722D01*
X0329766Y0108768D01*
X0329610Y0108818D01*
X0329454Y0108871D01*
X0329300Y0108928D01*
X0329148Y0108989D01*
X0328997Y0109054D01*
X0328847Y0109123D01*
X0328700Y0109195D01*
X0328554Y0109270D01*
X0328410Y0109350D01*
X0328268Y0109432D01*
X0328128Y0109518D01*
X0327991Y0109608D01*
X0327855Y0109701D01*
X0327722Y0109797D01*
X0327591Y0109897D01*
X0327463Y0109999D01*
X0327337Y0110105D01*
X0327214Y0110214D01*
X0327094Y0110326D01*
X0326976Y0110440D01*
X0326862Y0110558D01*
X0326750Y0110678D01*
X0326641Y0110801D01*
X0326535Y0110927D01*
X0326433Y0111055D01*
X0326333Y0111186D01*
X0326237Y0111319D01*
X0326144Y0111455D01*
X0326054Y0111592D01*
X0325968Y0111732D01*
X0325886Y0111874D01*
X0325806Y0112018D01*
X0325731Y0112164D01*
X0325659Y0112311D01*
X0325590Y0112461D01*
X0325525Y0112612D01*
X0325464Y0112764D01*
X0325407Y0112918D01*
X0325354Y0113074D01*
X0325304Y0113230D01*
X0325258Y0113388D01*
X0325217Y0113547D01*
X0325179Y0113707D01*
X0325145Y0113867D01*
X0325115Y0114029D01*
X0325088Y0114191D01*
X0325066Y0114354D01*
X0325048Y0114517D01*
X0325034Y0114681D01*
X0325024Y0114845D01*
X0325018Y0115009D01*
X0325016Y0115173D01*
X0318209Y0115173D02*
X0318213Y0115504D01*
X0318225Y0115835D01*
X0318246Y0116166D01*
X0318274Y0116496D01*
X0318311Y0116826D01*
X0318355Y0117154D01*
X0318408Y0117481D01*
X0318468Y0117807D01*
X0318537Y0118131D01*
X0318614Y0118453D01*
X0318698Y0118774D01*
X0318790Y0119092D01*
X0318890Y0119408D01*
X0318998Y0119721D01*
X0319114Y0120032D01*
X0319237Y0120339D01*
X0319367Y0120644D01*
X0319505Y0120945D01*
X0319650Y0121243D01*
X0319803Y0121537D01*
X0319963Y0121827D01*
X0320130Y0122113D01*
X0320303Y0122395D01*
X0320484Y0122673D01*
X0320672Y0122946D01*
X0320866Y0123215D01*
X0321066Y0123479D01*
X0321273Y0123737D01*
X0321487Y0123991D01*
X0321706Y0124239D01*
X0321932Y0124482D01*
X0322163Y0124719D01*
X0322400Y0124950D01*
X0322643Y0125176D01*
X0322891Y0125395D01*
X0323145Y0125609D01*
X0323403Y0125816D01*
X0323667Y0126016D01*
X0323936Y0126210D01*
X0324209Y0126398D01*
X0324487Y0126579D01*
X0324769Y0126752D01*
X0325055Y0126919D01*
X0325345Y0127079D01*
X0325639Y0127232D01*
X0325937Y0127377D01*
X0326238Y0127515D01*
X0326543Y0127645D01*
X0326850Y0127768D01*
X0327161Y0127884D01*
X0327474Y0127992D01*
X0327790Y0128092D01*
X0328108Y0128184D01*
X0328429Y0128268D01*
X0328751Y0128345D01*
X0329075Y0128414D01*
X0329401Y0128474D01*
X0329728Y0128527D01*
X0330056Y0128571D01*
X0330386Y0128608D01*
X0330716Y0128636D01*
X0331047Y0128657D01*
X0331378Y0128669D01*
X0331709Y0128673D01*
X0332040Y0128669D01*
X0332371Y0128657D01*
X0332702Y0128636D01*
X0333032Y0128608D01*
X0333362Y0128571D01*
X0333690Y0128527D01*
X0334017Y0128474D01*
X0334343Y0128414D01*
X0334667Y0128345D01*
X0334989Y0128268D01*
X0335310Y0128184D01*
X0335628Y0128092D01*
X0335944Y0127992D01*
X0336257Y0127884D01*
X0336568Y0127768D01*
X0336875Y0127645D01*
X0337180Y0127515D01*
X0337481Y0127377D01*
X0337779Y0127232D01*
X0338073Y0127079D01*
X0338363Y0126919D01*
X0338649Y0126752D01*
X0338931Y0126579D01*
X0339209Y0126398D01*
X0339482Y0126210D01*
X0339751Y0126016D01*
X0340015Y0125816D01*
X0340273Y0125609D01*
X0340527Y0125395D01*
X0340775Y0125176D01*
X0341018Y0124950D01*
X0341255Y0124719D01*
X0341486Y0124482D01*
X0341712Y0124239D01*
X0341931Y0123991D01*
X0342145Y0123737D01*
X0342352Y0123479D01*
X0342552Y0123215D01*
X0342746Y0122946D01*
X0342934Y0122673D01*
X0343115Y0122395D01*
X0343288Y0122113D01*
X0343455Y0121827D01*
X0343615Y0121537D01*
X0343768Y0121243D01*
X0343913Y0120945D01*
X0344051Y0120644D01*
X0344181Y0120339D01*
X0344304Y0120032D01*
X0344420Y0119721D01*
X0344528Y0119408D01*
X0344628Y0119092D01*
X0344720Y0118774D01*
X0344804Y0118453D01*
X0344881Y0118131D01*
X0344950Y0117807D01*
X0345010Y0117481D01*
X0345063Y0117154D01*
X0345107Y0116826D01*
X0345144Y0116496D01*
X0345172Y0116166D01*
X0345193Y0115835D01*
X0345205Y0115504D01*
X0345209Y0115173D01*
X0345205Y0114842D01*
X0345193Y0114511D01*
X0345172Y0114180D01*
X0345144Y0113850D01*
X0345107Y0113520D01*
X0345063Y0113192D01*
X0345010Y0112865D01*
X0344950Y0112539D01*
X0344881Y0112215D01*
X0344804Y0111893D01*
X0344720Y0111572D01*
X0344628Y0111254D01*
X0344528Y0110938D01*
X0344420Y0110625D01*
X0344304Y0110314D01*
X0344181Y0110007D01*
X0344051Y0109702D01*
X0343913Y0109401D01*
X0343768Y0109103D01*
X0343615Y0108809D01*
X0343455Y0108519D01*
X0343288Y0108233D01*
X0343115Y0107951D01*
X0342934Y0107673D01*
X0342746Y0107400D01*
X0342552Y0107131D01*
X0342352Y0106867D01*
X0342145Y0106609D01*
X0341931Y0106355D01*
X0341712Y0106107D01*
X0341486Y0105864D01*
X0341255Y0105627D01*
X0341018Y0105396D01*
X0340775Y0105170D01*
X0340527Y0104951D01*
X0340273Y0104737D01*
X0340015Y0104530D01*
X0339751Y0104330D01*
X0339482Y0104136D01*
X0339209Y0103948D01*
X0338931Y0103767D01*
X0338649Y0103594D01*
X0338363Y0103427D01*
X0338073Y0103267D01*
X0337779Y0103114D01*
X0337481Y0102969D01*
X0337180Y0102831D01*
X0336875Y0102701D01*
X0336568Y0102578D01*
X0336257Y0102462D01*
X0335944Y0102354D01*
X0335628Y0102254D01*
X0335310Y0102162D01*
X0334989Y0102078D01*
X0334667Y0102001D01*
X0334343Y0101932D01*
X0334017Y0101872D01*
X0333690Y0101819D01*
X0333362Y0101775D01*
X0333032Y0101738D01*
X0332702Y0101710D01*
X0332371Y0101689D01*
X0332040Y0101677D01*
X0331709Y0101673D01*
X0331378Y0101677D01*
X0331047Y0101689D01*
X0330716Y0101710D01*
X0330386Y0101738D01*
X0330056Y0101775D01*
X0329728Y0101819D01*
X0329401Y0101872D01*
X0329075Y0101932D01*
X0328751Y0102001D01*
X0328429Y0102078D01*
X0328108Y0102162D01*
X0327790Y0102254D01*
X0327474Y0102354D01*
X0327161Y0102462D01*
X0326850Y0102578D01*
X0326543Y0102701D01*
X0326238Y0102831D01*
X0325937Y0102969D01*
X0325639Y0103114D01*
X0325345Y0103267D01*
X0325055Y0103427D01*
X0324769Y0103594D01*
X0324487Y0103767D01*
X0324209Y0103948D01*
X0323936Y0104136D01*
X0323667Y0104330D01*
X0323403Y0104530D01*
X0323145Y0104737D01*
X0322891Y0104951D01*
X0322643Y0105170D01*
X0322400Y0105396D01*
X0322163Y0105627D01*
X0321932Y0105864D01*
X0321706Y0106107D01*
X0321487Y0106355D01*
X0321273Y0106609D01*
X0321066Y0106867D01*
X0320866Y0107131D01*
X0320672Y0107400D01*
X0320484Y0107673D01*
X0320303Y0107951D01*
X0320130Y0108233D01*
X0319963Y0108519D01*
X0319803Y0108809D01*
X0319650Y0109103D01*
X0319505Y0109401D01*
X0319367Y0109702D01*
X0319237Y0110007D01*
X0319114Y0110314D01*
X0318998Y0110625D01*
X0318890Y0110938D01*
X0318790Y0111254D01*
X0318698Y0111572D01*
X0318614Y0111893D01*
X0318537Y0112215D01*
X0318468Y0112539D01*
X0318408Y0112865D01*
X0318355Y0113192D01*
X0318311Y0113520D01*
X0318274Y0113850D01*
X0318246Y0114180D01*
X0318225Y0114511D01*
X0318213Y0114842D01*
X0318209Y0115173D01*
X0325016Y0024622D02*
X0325018Y0024786D01*
X0325024Y0024950D01*
X0325034Y0025114D01*
X0325048Y0025278D01*
X0325066Y0025441D01*
X0325088Y0025604D01*
X0325115Y0025766D01*
X0325145Y0025928D01*
X0325179Y0026088D01*
X0325217Y0026248D01*
X0325258Y0026407D01*
X0325304Y0026565D01*
X0325354Y0026721D01*
X0325407Y0026877D01*
X0325464Y0027031D01*
X0325525Y0027183D01*
X0325590Y0027334D01*
X0325659Y0027484D01*
X0325731Y0027631D01*
X0325806Y0027777D01*
X0325886Y0027921D01*
X0325968Y0028063D01*
X0326054Y0028203D01*
X0326144Y0028340D01*
X0326237Y0028476D01*
X0326333Y0028609D01*
X0326433Y0028740D01*
X0326535Y0028868D01*
X0326641Y0028994D01*
X0326750Y0029117D01*
X0326862Y0029237D01*
X0326976Y0029355D01*
X0327094Y0029469D01*
X0327214Y0029581D01*
X0327337Y0029690D01*
X0327463Y0029796D01*
X0327591Y0029898D01*
X0327722Y0029998D01*
X0327855Y0030094D01*
X0327991Y0030187D01*
X0328128Y0030277D01*
X0328268Y0030363D01*
X0328410Y0030445D01*
X0328554Y0030525D01*
X0328700Y0030600D01*
X0328847Y0030672D01*
X0328997Y0030741D01*
X0329148Y0030806D01*
X0329300Y0030867D01*
X0329454Y0030924D01*
X0329610Y0030977D01*
X0329766Y0031027D01*
X0329924Y0031073D01*
X0330083Y0031114D01*
X0330243Y0031152D01*
X0330403Y0031186D01*
X0330565Y0031216D01*
X0330727Y0031243D01*
X0330890Y0031265D01*
X0331053Y0031283D01*
X0331217Y0031297D01*
X0331381Y0031307D01*
X0331545Y0031313D01*
X0331709Y0031315D01*
X0331873Y0031313D01*
X0332037Y0031307D01*
X0332201Y0031297D01*
X0332365Y0031283D01*
X0332528Y0031265D01*
X0332691Y0031243D01*
X0332853Y0031216D01*
X0333015Y0031186D01*
X0333175Y0031152D01*
X0333335Y0031114D01*
X0333494Y0031073D01*
X0333652Y0031027D01*
X0333808Y0030977D01*
X0333964Y0030924D01*
X0334118Y0030867D01*
X0334270Y0030806D01*
X0334421Y0030741D01*
X0334571Y0030672D01*
X0334718Y0030600D01*
X0334864Y0030525D01*
X0335008Y0030445D01*
X0335150Y0030363D01*
X0335290Y0030277D01*
X0335427Y0030187D01*
X0335563Y0030094D01*
X0335696Y0029998D01*
X0335827Y0029898D01*
X0335955Y0029796D01*
X0336081Y0029690D01*
X0336204Y0029581D01*
X0336324Y0029469D01*
X0336442Y0029355D01*
X0336556Y0029237D01*
X0336668Y0029117D01*
X0336777Y0028994D01*
X0336883Y0028868D01*
X0336985Y0028740D01*
X0337085Y0028609D01*
X0337181Y0028476D01*
X0337274Y0028340D01*
X0337364Y0028203D01*
X0337450Y0028063D01*
X0337532Y0027921D01*
X0337612Y0027777D01*
X0337687Y0027631D01*
X0337759Y0027484D01*
X0337828Y0027334D01*
X0337893Y0027183D01*
X0337954Y0027031D01*
X0338011Y0026877D01*
X0338064Y0026721D01*
X0338114Y0026565D01*
X0338160Y0026407D01*
X0338201Y0026248D01*
X0338239Y0026088D01*
X0338273Y0025928D01*
X0338303Y0025766D01*
X0338330Y0025604D01*
X0338352Y0025441D01*
X0338370Y0025278D01*
X0338384Y0025114D01*
X0338394Y0024950D01*
X0338400Y0024786D01*
X0338402Y0024622D01*
X0338400Y0024458D01*
X0338394Y0024294D01*
X0338384Y0024130D01*
X0338370Y0023966D01*
X0338352Y0023803D01*
X0338330Y0023640D01*
X0338303Y0023478D01*
X0338273Y0023316D01*
X0338239Y0023156D01*
X0338201Y0022996D01*
X0338160Y0022837D01*
X0338114Y0022679D01*
X0338064Y0022523D01*
X0338011Y0022367D01*
X0337954Y0022213D01*
X0337893Y0022061D01*
X0337828Y0021910D01*
X0337759Y0021760D01*
X0337687Y0021613D01*
X0337612Y0021467D01*
X0337532Y0021323D01*
X0337450Y0021181D01*
X0337364Y0021041D01*
X0337274Y0020904D01*
X0337181Y0020768D01*
X0337085Y0020635D01*
X0336985Y0020504D01*
X0336883Y0020376D01*
X0336777Y0020250D01*
X0336668Y0020127D01*
X0336556Y0020007D01*
X0336442Y0019889D01*
X0336324Y0019775D01*
X0336204Y0019663D01*
X0336081Y0019554D01*
X0335955Y0019448D01*
X0335827Y0019346D01*
X0335696Y0019246D01*
X0335563Y0019150D01*
X0335427Y0019057D01*
X0335290Y0018967D01*
X0335150Y0018881D01*
X0335008Y0018799D01*
X0334864Y0018719D01*
X0334718Y0018644D01*
X0334571Y0018572D01*
X0334421Y0018503D01*
X0334270Y0018438D01*
X0334118Y0018377D01*
X0333964Y0018320D01*
X0333808Y0018267D01*
X0333652Y0018217D01*
X0333494Y0018171D01*
X0333335Y0018130D01*
X0333175Y0018092D01*
X0333015Y0018058D01*
X0332853Y0018028D01*
X0332691Y0018001D01*
X0332528Y0017979D01*
X0332365Y0017961D01*
X0332201Y0017947D01*
X0332037Y0017937D01*
X0331873Y0017931D01*
X0331709Y0017929D01*
X0331545Y0017931D01*
X0331381Y0017937D01*
X0331217Y0017947D01*
X0331053Y0017961D01*
X0330890Y0017979D01*
X0330727Y0018001D01*
X0330565Y0018028D01*
X0330403Y0018058D01*
X0330243Y0018092D01*
X0330083Y0018130D01*
X0329924Y0018171D01*
X0329766Y0018217D01*
X0329610Y0018267D01*
X0329454Y0018320D01*
X0329300Y0018377D01*
X0329148Y0018438D01*
X0328997Y0018503D01*
X0328847Y0018572D01*
X0328700Y0018644D01*
X0328554Y0018719D01*
X0328410Y0018799D01*
X0328268Y0018881D01*
X0328128Y0018967D01*
X0327991Y0019057D01*
X0327855Y0019150D01*
X0327722Y0019246D01*
X0327591Y0019346D01*
X0327463Y0019448D01*
X0327337Y0019554D01*
X0327214Y0019663D01*
X0327094Y0019775D01*
X0326976Y0019889D01*
X0326862Y0020007D01*
X0326750Y0020127D01*
X0326641Y0020250D01*
X0326535Y0020376D01*
X0326433Y0020504D01*
X0326333Y0020635D01*
X0326237Y0020768D01*
X0326144Y0020904D01*
X0326054Y0021041D01*
X0325968Y0021181D01*
X0325886Y0021323D01*
X0325806Y0021467D01*
X0325731Y0021613D01*
X0325659Y0021760D01*
X0325590Y0021910D01*
X0325525Y0022061D01*
X0325464Y0022213D01*
X0325407Y0022367D01*
X0325354Y0022523D01*
X0325304Y0022679D01*
X0325258Y0022837D01*
X0325217Y0022996D01*
X0325179Y0023156D01*
X0325145Y0023316D01*
X0325115Y0023478D01*
X0325088Y0023640D01*
X0325066Y0023803D01*
X0325048Y0023966D01*
X0325034Y0024130D01*
X0325024Y0024294D01*
X0325018Y0024458D01*
X0325016Y0024622D01*
X0318209Y0024622D02*
X0318213Y0024953D01*
X0318225Y0025284D01*
X0318246Y0025615D01*
X0318274Y0025945D01*
X0318311Y0026275D01*
X0318355Y0026603D01*
X0318408Y0026930D01*
X0318468Y0027256D01*
X0318537Y0027580D01*
X0318614Y0027902D01*
X0318698Y0028223D01*
X0318790Y0028541D01*
X0318890Y0028857D01*
X0318998Y0029170D01*
X0319114Y0029481D01*
X0319237Y0029788D01*
X0319367Y0030093D01*
X0319505Y0030394D01*
X0319650Y0030692D01*
X0319803Y0030986D01*
X0319963Y0031276D01*
X0320130Y0031562D01*
X0320303Y0031844D01*
X0320484Y0032122D01*
X0320672Y0032395D01*
X0320866Y0032664D01*
X0321066Y0032928D01*
X0321273Y0033186D01*
X0321487Y0033440D01*
X0321706Y0033688D01*
X0321932Y0033931D01*
X0322163Y0034168D01*
X0322400Y0034399D01*
X0322643Y0034625D01*
X0322891Y0034844D01*
X0323145Y0035058D01*
X0323403Y0035265D01*
X0323667Y0035465D01*
X0323936Y0035659D01*
X0324209Y0035847D01*
X0324487Y0036028D01*
X0324769Y0036201D01*
X0325055Y0036368D01*
X0325345Y0036528D01*
X0325639Y0036681D01*
X0325937Y0036826D01*
X0326238Y0036964D01*
X0326543Y0037094D01*
X0326850Y0037217D01*
X0327161Y0037333D01*
X0327474Y0037441D01*
X0327790Y0037541D01*
X0328108Y0037633D01*
X0328429Y0037717D01*
X0328751Y0037794D01*
X0329075Y0037863D01*
X0329401Y0037923D01*
X0329728Y0037976D01*
X0330056Y0038020D01*
X0330386Y0038057D01*
X0330716Y0038085D01*
X0331047Y0038106D01*
X0331378Y0038118D01*
X0331709Y0038122D01*
X0332040Y0038118D01*
X0332371Y0038106D01*
X0332702Y0038085D01*
X0333032Y0038057D01*
X0333362Y0038020D01*
X0333690Y0037976D01*
X0334017Y0037923D01*
X0334343Y0037863D01*
X0334667Y0037794D01*
X0334989Y0037717D01*
X0335310Y0037633D01*
X0335628Y0037541D01*
X0335944Y0037441D01*
X0336257Y0037333D01*
X0336568Y0037217D01*
X0336875Y0037094D01*
X0337180Y0036964D01*
X0337481Y0036826D01*
X0337779Y0036681D01*
X0338073Y0036528D01*
X0338363Y0036368D01*
X0338649Y0036201D01*
X0338931Y0036028D01*
X0339209Y0035847D01*
X0339482Y0035659D01*
X0339751Y0035465D01*
X0340015Y0035265D01*
X0340273Y0035058D01*
X0340527Y0034844D01*
X0340775Y0034625D01*
X0341018Y0034399D01*
X0341255Y0034168D01*
X0341486Y0033931D01*
X0341712Y0033688D01*
X0341931Y0033440D01*
X0342145Y0033186D01*
X0342352Y0032928D01*
X0342552Y0032664D01*
X0342746Y0032395D01*
X0342934Y0032122D01*
X0343115Y0031844D01*
X0343288Y0031562D01*
X0343455Y0031276D01*
X0343615Y0030986D01*
X0343768Y0030692D01*
X0343913Y0030394D01*
X0344051Y0030093D01*
X0344181Y0029788D01*
X0344304Y0029481D01*
X0344420Y0029170D01*
X0344528Y0028857D01*
X0344628Y0028541D01*
X0344720Y0028223D01*
X0344804Y0027902D01*
X0344881Y0027580D01*
X0344950Y0027256D01*
X0345010Y0026930D01*
X0345063Y0026603D01*
X0345107Y0026275D01*
X0345144Y0025945D01*
X0345172Y0025615D01*
X0345193Y0025284D01*
X0345205Y0024953D01*
X0345209Y0024622D01*
X0345205Y0024291D01*
X0345193Y0023960D01*
X0345172Y0023629D01*
X0345144Y0023299D01*
X0345107Y0022969D01*
X0345063Y0022641D01*
X0345010Y0022314D01*
X0344950Y0021988D01*
X0344881Y0021664D01*
X0344804Y0021342D01*
X0344720Y0021021D01*
X0344628Y0020703D01*
X0344528Y0020387D01*
X0344420Y0020074D01*
X0344304Y0019763D01*
X0344181Y0019456D01*
X0344051Y0019151D01*
X0343913Y0018850D01*
X0343768Y0018552D01*
X0343615Y0018258D01*
X0343455Y0017968D01*
X0343288Y0017682D01*
X0343115Y0017400D01*
X0342934Y0017122D01*
X0342746Y0016849D01*
X0342552Y0016580D01*
X0342352Y0016316D01*
X0342145Y0016058D01*
X0341931Y0015804D01*
X0341712Y0015556D01*
X0341486Y0015313D01*
X0341255Y0015076D01*
X0341018Y0014845D01*
X0340775Y0014619D01*
X0340527Y0014400D01*
X0340273Y0014186D01*
X0340015Y0013979D01*
X0339751Y0013779D01*
X0339482Y0013585D01*
X0339209Y0013397D01*
X0338931Y0013216D01*
X0338649Y0013043D01*
X0338363Y0012876D01*
X0338073Y0012716D01*
X0337779Y0012563D01*
X0337481Y0012418D01*
X0337180Y0012280D01*
X0336875Y0012150D01*
X0336568Y0012027D01*
X0336257Y0011911D01*
X0335944Y0011803D01*
X0335628Y0011703D01*
X0335310Y0011611D01*
X0334989Y0011527D01*
X0334667Y0011450D01*
X0334343Y0011381D01*
X0334017Y0011321D01*
X0333690Y0011268D01*
X0333362Y0011224D01*
X0333032Y0011187D01*
X0332702Y0011159D01*
X0332371Y0011138D01*
X0332040Y0011126D01*
X0331709Y0011122D01*
X0331378Y0011126D01*
X0331047Y0011138D01*
X0330716Y0011159D01*
X0330386Y0011187D01*
X0330056Y0011224D01*
X0329728Y0011268D01*
X0329401Y0011321D01*
X0329075Y0011381D01*
X0328751Y0011450D01*
X0328429Y0011527D01*
X0328108Y0011611D01*
X0327790Y0011703D01*
X0327474Y0011803D01*
X0327161Y0011911D01*
X0326850Y0012027D01*
X0326543Y0012150D01*
X0326238Y0012280D01*
X0325937Y0012418D01*
X0325639Y0012563D01*
X0325345Y0012716D01*
X0325055Y0012876D01*
X0324769Y0013043D01*
X0324487Y0013216D01*
X0324209Y0013397D01*
X0323936Y0013585D01*
X0323667Y0013779D01*
X0323403Y0013979D01*
X0323145Y0014186D01*
X0322891Y0014400D01*
X0322643Y0014619D01*
X0322400Y0014845D01*
X0322163Y0015076D01*
X0321932Y0015313D01*
X0321706Y0015556D01*
X0321487Y0015804D01*
X0321273Y0016058D01*
X0321066Y0016316D01*
X0320866Y0016580D01*
X0320672Y0016849D01*
X0320484Y0017122D01*
X0320303Y0017400D01*
X0320130Y0017682D01*
X0319963Y0017968D01*
X0319803Y0018258D01*
X0319650Y0018552D01*
X0319505Y0018850D01*
X0319367Y0019151D01*
X0319237Y0019456D01*
X0319114Y0019763D01*
X0318998Y0020074D01*
X0318890Y0020387D01*
X0318790Y0020703D01*
X0318698Y0021021D01*
X0318614Y0021342D01*
X0318537Y0021664D01*
X0318468Y0021988D01*
X0318408Y0022314D01*
X0318355Y0022641D01*
X0318311Y0022969D01*
X0318274Y0023299D01*
X0318246Y0023629D01*
X0318225Y0023960D01*
X0318213Y0024291D01*
X0318209Y0024622D01*
M02*
